<svg width="1312" height="56" viewBox="0 0 1312 56" fill="none" xmlns="http://www.w3.org/2000/svg">
<g clip-path="url(#clip0_110_14313)">
<path fill-rule="evenodd" clip-rule="evenodd" d="M16.0026 25.1024C16.1429 24.4019 16.19 23.2818 16.237 21.7415H16.9852C17.0322 22.7684 17.0792 23.4219 17.1726 23.6083C17.2196 23.7953 17.4533 23.9816 17.7341 24.1687C18.0611 24.4019 18.4822 24.589 19.0437 24.776C19.5582 24.9161 20.0726 25.0093 20.5871 25.0093C21.336 25.0093 21.9908 24.8222 22.5986 24.4958C23.2064 24.1694 23.6746 23.7021 23.9546 23.1887C24.2313 22.6379 24.3755 22.0304 24.3757 21.4143C24.3748 20.9836 24.2956 20.5567 24.142 20.1542C24.0016 19.8277 23.815 19.5475 23.5335 19.3143C23.1992 19.1186 22.8361 18.9768 22.4575 18.894C21.914 18.8023 21.3683 18.7242 20.8208 18.66C20.0256 18.5668 19.3238 18.4267 18.7623 18.3336C18.0141 18.0996 17.4526 17.8194 17.1255 17.493C16.7514 17.2128 16.4707 16.7932 16.237 16.279C16.0026 15.7656 15.9092 15.2521 15.9092 14.6448C15.9092 13.8042 16.1436 13.0112 16.564 12.2638C17.0467 11.4891 17.746 10.8724 18.5756 10.4894C19.4178 10.0691 20.3997 9.88281 21.4286 9.88281C22.0364 9.88281 22.6913 9.92903 23.4402 10.1161C24.1413 10.2562 24.8432 10.5364 25.4517 10.8159C25.3698 11.2486 25.3073 11.6847 25.2643 12.123C25.218 12.4963 25.218 13.1037 25.1709 13.8504H24.4228C24.4228 12.7296 24.3757 12.123 24.3294 12.0298C24.1397 11.7399 23.8828 11.4999 23.5805 11.33C22.8323 10.9097 22.0842 10.6765 21.2419 10.6765C20.213 10.6765 19.3715 11.0029 18.7167 11.6102C18.1081 12.2638 17.7811 13.1044 17.7811 14.0844C17.7811 14.6917 17.9215 15.2052 18.1552 15.5316C18.3419 15.858 18.763 16.1382 19.3245 16.3252C19.7456 16.4653 20.4004 16.6054 21.289 16.6986C22.1782 16.8387 23.0198 16.9788 23.7216 17.1189C24.4235 17.3059 24.9379 17.5392 25.265 17.8187C25.5465 18.0989 25.8265 18.4722 26.0602 18.9395C26.2476 19.4067 26.3409 19.9195 26.3409 20.5268C26.3409 22.021 25.7795 23.2811 24.5631 24.355C23.3468 25.4289 21.8034 25.9892 19.9323 25.9892C18.572 25.9945 17.2283 25.6912 16.0026 25.1024ZM27.4625 10.8642V10.1637C28.6318 10.2107 29.7541 10.2107 30.7837 10.2107C31.8133 10.2107 32.7952 10.2107 33.8241 10.1637V10.8642C32.9819 10.8642 32.4675 10.9104 32.3271 10.9574C32.1404 11.0505 32 11.0975 31.953 11.2376C31.8596 11.3777 31.7656 11.7041 31.7656 12.2645C31.7656 12.4515 31.7186 13.4785 31.6722 15.3922V19.4074C31.6722 20.9478 31.8126 22.0217 31.9993 22.4882C32.1844 22.9887 32.509 23.426 32.9349 23.7484C33.2619 23.9816 33.7301 24.1687 34.2916 24.3088C34.8531 24.4951 35.4609 24.542 36.1627 24.542C36.9579 24.542 37.7061 24.4489 38.3146 24.2618C38.9232 24.0286 39.3906 23.7953 39.7177 23.5151C40.0447 23.2349 40.2791 22.9085 40.4188 22.5351C40.5592 22.2087 40.6995 21.6952 40.7466 21.0879C40.8399 20.4806 40.8869 19.6876 40.8869 18.7539V15.3929C40.8869 14.4122 40.8406 13.4322 40.7936 12.4985C40.7936 11.7987 40.7473 11.3784 40.6532 11.2383C40.5283 11.1237 40.3862 11.0291 40.2321 10.9581C40.0917 10.9112 39.5773 10.8649 38.735 10.8649V10.1637C39.9514 10.2107 40.7929 10.2107 41.3544 10.2107C41.8696 10.2107 42.7581 10.2107 44.0678 10.1637V10.8642C43.2255 10.8642 42.7111 10.9104 42.5244 10.9574C42.3834 11.0269 42.2566 11.1219 42.1503 11.2376C42.057 11.3777 42.0099 11.7041 42.0099 12.2645C41.9636 12.4515 41.9166 13.4785 41.9166 15.3922V19.0334C41.9166 20.807 41.7762 22.0679 41.5425 22.8146C41.2618 23.5144 40.7943 24.1217 40.1395 24.6821C39.625 25.1017 39.0165 25.3819 38.222 25.6159C37.3711 25.8639 36.4891 25.9896 35.6027 25.9892C34.4804 25.9892 33.4978 25.8491 32.6556 25.5682C31.8604 25.288 31.2055 24.9616 30.7851 24.5413C30.364 24.0748 30.0833 23.6545 29.8959 23.1873C29.7085 22.5806 29.6151 21.5999 29.6151 20.1997V15.3915C29.6151 14.4108 29.5688 13.4308 29.5218 12.4971C29.5218 11.7973 29.4755 11.377 29.3814 11.2369C29.2881 11.1437 29.1477 11.0498 29.0073 10.9567C28.8192 10.9104 28.304 10.8642 27.4625 10.8642ZM45.7986 25.6621V25.0555C46.1111 24.9333 46.4091 24.7768 46.6871 24.589C46.7812 24.4951 46.8275 24.4019 46.8745 24.3088C46.9215 24.1217 46.9686 23.7014 46.9686 23.0016C47.0149 22.021 47.0619 21.4143 47.0619 21.2273V15.3915C47.0619 14.4108 47.0156 13.4308 46.9686 12.4971C46.9686 11.7973 46.9215 11.377 46.8282 11.2369C46.7348 11.1437 46.6408 11.0498 46.4541 10.9567C46.2674 10.9097 45.753 10.8635 44.9107 10.8635V10.1637C46.6878 10.2107 47.8108 10.2107 48.2319 10.2107C48.6994 10.2107 49.7283 10.2107 51.365 10.1637V10.8642C50.4764 10.8642 49.962 10.9104 49.7753 10.9574C49.5879 11.0505 49.4482 11.0975 49.4012 11.2376C49.3079 11.3777 49.2608 11.7041 49.2138 12.2645C49.2138 12.4515 49.2138 13.4785 49.1675 15.3922V22.6745C49.1675 23.4682 49.1675 24.0755 49.2138 24.542C50.056 24.589 50.8512 24.6352 51.6928 24.6352C53.7043 24.6352 55.1543 24.4951 55.9495 24.2149C56.0429 24.0286 56.137 23.7477 56.2303 23.4682L56.6507 21.6945H57.3996C57.2592 22.7677 57.0718 24.0755 56.9322 25.522C56.6507 25.5682 56.417 25.6159 56.2303 25.6159C55.8562 25.6159 55.2484 25.6614 54.4525 25.6614L47.9505 25.5682C47.2486 25.569 46.5467 25.6166 45.7986 25.6621ZM59.4567 25.6621V25.0555C59.9249 24.8685 60.2049 24.6821 60.346 24.589C60.4393 24.4951 60.4864 24.4019 60.4864 24.3088C60.5797 24.1217 60.6267 23.7014 60.6267 23.0016C60.673 22.021 60.7201 21.4143 60.7201 21.2273V15.3915C60.7201 14.4108 60.673 13.4308 60.6267 12.4971C60.6267 11.7973 60.5804 11.377 60.4864 11.2369C60.393 11.1437 60.299 11.0498 60.1123 10.9567C59.9256 10.9097 59.4104 10.8635 58.5689 10.8635V10.1637C60.3467 10.2107 61.469 10.2107 61.8901 10.2107C62.3575 10.2107 63.3864 10.2107 65.0246 10.1637V10.8642C64.1353 10.8642 63.6202 10.9104 63.4342 10.9574C63.2461 11.0505 63.1071 11.0975 63.0601 11.2376C62.9667 11.3777 62.9197 11.7041 62.8727 12.2645C62.8727 12.4515 62.8264 13.4785 62.8264 15.3922V22.6745C62.8264 23.4682 62.8264 24.0755 62.8727 24.542C63.7156 24.589 64.5101 24.6352 65.3516 24.6352C67.3625 24.6352 68.8125 24.4951 69.6077 24.2149C69.7025 24.0286 69.7958 23.7477 69.8892 23.4682L70.311 21.6945H71.0585C70.9195 22.7677 70.7314 24.0755 70.591 25.522C70.311 25.5682 70.0773 25.6159 69.8899 25.6159C69.5158 25.6159 68.9073 25.6614 68.1128 25.6614L61.6108 25.5682C60.9068 25.569 60.2049 25.6166 59.4567 25.6621ZM78.7747 24.9623V25.6621C77.2313 25.6166 76.2487 25.569 75.7335 25.569L72.413 25.6621V24.9623C73.2553 24.9161 73.7697 24.8692 73.9564 24.8222C74.097 24.7733 74.2248 24.6936 74.3305 24.589C74.3775 24.4019 74.4709 24.0755 74.4709 23.5151C74.4709 23.375 74.5179 22.3481 74.5642 20.4336V15.3922C74.5642 14.4115 74.5186 13.4315 74.4709 12.4978C74.4709 11.798 74.4238 11.3777 74.3305 11.2376C74.2058 11.1229 74.064 11.0284 73.9101 10.9574C73.7697 10.9104 73.2545 10.8642 72.4123 10.8642V10.1637C73.769 10.2107 74.845 10.2107 75.5938 10.2107C76.3413 10.2107 77.3709 10.2107 78.774 10.1637V10.8642C77.9317 10.8642 77.4173 10.9104 77.2306 10.9574C77.0425 11.0505 76.9491 11.0975 76.8565 11.2376C76.8109 11.3777 76.7161 11.7041 76.7161 12.2645C76.7161 12.4515 76.6705 13.4785 76.6228 15.3922V20.4336C76.6228 21.4136 76.6698 22.3481 76.6698 23.3281C76.7154 23.9816 76.7631 24.4019 76.8102 24.542C76.9088 24.6861 77.0594 24.7865 77.2306 24.8222C77.418 24.8692 77.9332 24.9161 78.7747 24.9623ZM87.0545 25.7567C86.8678 25.1024 86.4004 23.8892 85.6978 22.1148L82.0025 12.9181C81.5821 11.9381 81.3484 11.3777 81.2536 11.2376C81.208 11.1444 81.1147 11.0975 80.9736 11.0505C80.8332 10.9574 80.4114 10.9104 79.7573 10.8642V10.1637C81.114 10.2107 82.0952 10.2107 82.7037 10.2107C83.3122 10.2107 84.2941 10.2107 85.6971 10.1637V10.8642C84.8093 10.8642 84.2941 10.9104 84.1537 10.9104C84.0133 10.9574 83.92 10.9574 83.8737 11.0505C83.824 11.102 83.791 11.1671 83.7789 11.2376C83.7789 11.3315 83.8259 11.5178 83.967 11.8449C84.1961 12.65 84.4612 13.4445 84.7615 14.2259L88.1768 22.816L91.0298 15.7193C91.4502 14.6924 91.8243 13.5716 92.1991 12.3584C92.3872 11.8449 92.4328 11.5178 92.4328 11.3784C92.4328 11.2383 92.3395 11.0982 92.1528 11.0513C92.0124 11.005 91.4502 10.9112 90.469 10.8649V10.1637C91.5906 10.2107 92.3865 10.2107 92.948 10.2107C93.5095 10.2107 94.3047 10.2107 95.2873 10.1637V10.8642C94.7721 10.8642 94.4451 10.9104 94.3047 10.9574C94.2114 11.0036 94.1166 11.0975 94.0232 11.2838C93.9299 11.377 93.6962 11.9843 93.181 13.0582L89.8128 21.4143L88.9706 23.562C88.7839 23.9816 88.6435 24.3557 88.5031 24.6828C88.4098 24.963 88.3164 25.3364 88.1761 25.7567H87.0545ZM98.327 12.9643L101.041 19.5468H95.5217L98.327 12.9643ZM92.7613 25.569C93.4154 25.569 94.3047 25.6159 95.5673 25.6621V24.9623C94.8662 24.9161 94.3981 24.9161 94.1173 24.8222C93.9769 24.8222 93.8373 24.7291 93.7432 24.6359C93.685 24.5716 93.6519 24.4886 93.6499 24.4019C93.6499 24.1687 93.7902 23.7953 93.9769 23.2818L95.1477 20.4806H101.462L102.818 23.8422C102.912 24.0762 102.959 24.3095 102.959 24.4496C102.957 24.5365 102.923 24.6197 102.864 24.6835C102.818 24.7767 102.677 24.8229 102.491 24.8699C102.351 24.9168 101.836 24.9168 101.041 24.963V25.6628L104.548 25.5697C104.97 25.5697 105.765 25.6166 106.888 25.6628V24.963C106.327 24.9168 105.953 24.8699 105.812 24.8229C105.624 24.7298 105.485 24.5427 105.344 24.3095C105.111 23.8422 104.595 22.7222 103.846 20.9478L99.2163 10.0236H98.4674C97.5326 12.3577 96.877 13.8518 96.597 14.5523L93.8373 20.6683C93.0414 22.4889 92.5739 23.4689 92.4328 23.7491C92.1991 24.2163 92.0587 24.5427 91.9191 24.6366C91.7787 24.7298 91.684 24.8229 91.545 24.8699C91.4046 24.9168 91.0298 24.9168 90.469 24.963V25.6628C91.3113 25.6166 92.0588 25.569 92.7613 25.569ZM108.009 25.6621V24.9623C108.805 24.9161 109.273 24.8692 109.554 24.7753C109.647 24.7291 109.693 24.6352 109.741 24.542C109.834 24.4019 109.881 24.0286 109.929 23.4219C109.974 22.4413 109.974 21.6476 109.974 20.9478V12.0775C109.974 11.8442 109.974 11.7041 109.929 11.6109C109.882 11.4708 109.741 11.3307 109.555 11.1437C109.414 11.0036 109.273 10.9574 109.087 10.9104C108.899 10.8642 108.525 10.8642 107.964 10.8642V10.1637C109.226 10.2107 110.023 10.2107 110.35 10.2107C110.865 10.2107 111.426 10.2107 111.987 10.1637C112.595 10.9574 113.016 11.564 113.296 11.9381L115.542 14.6924L118.769 18.6607C119.845 19.9209 120.687 20.9485 121.295 21.6483C121.716 22.1155 122.044 22.4889 122.324 22.7691V14.8325C122.324 14.1327 122.278 13.2921 122.23 12.3584C122.23 11.751 122.183 11.3784 122.09 11.2376C122.037 11.138 121.956 11.0566 121.856 11.0043C121.622 10.9112 121.107 10.8642 120.36 10.8642V10.1637C121.202 10.2107 122.09 10.2107 122.979 10.2107C123.774 10.2107 124.57 10.2107 125.224 10.1637V10.8642C124.475 10.8642 123.962 10.9104 123.726 11.0043C123.633 11.0505 123.587 11.1444 123.539 11.2376C123.446 11.3777 123.399 11.751 123.353 12.4053C123.305 13.3384 123.306 14.179 123.306 14.8794V20.1079C123.306 21.1818 123.305 23.1425 123.353 26.0362L122.23 25.7098L121.948 25.6628C121.948 25.6173 121.902 25.6173 121.855 25.5697L121.434 25.1501C120.826 24.4496 120.405 23.9361 120.125 23.5628L118.72 21.7884L110.956 12.4046V20.9009C110.956 21.6007 111.003 22.4413 111.05 23.4219C111.05 24.0293 111.097 24.4019 111.19 24.542C111.243 24.6413 111.324 24.7226 111.424 24.7753C111.657 24.8685 112.173 24.9154 112.922 24.9623V25.6621C112.266 25.6166 111.565 25.569 110.769 25.569C109.928 25.569 109.039 25.6166 108.009 25.6621ZM21.1942 35.841C21.1942 38.1743 20.399 39.0149 18.5285 39.0149C16.6574 39.0149 15.8622 38.222 15.8622 35.7941V30.5656H16.5633V35.841C16.5633 37.6146 16.9844 38.5008 18.5285 38.5008C20.1182 38.5008 20.493 37.6146 20.493 35.841V30.5656H21.1942V35.841ZM34.2453 38.1743C34.1982 36.8672 34.1982 34.2992 34.1982 30.5656H34.9001V38.8748H33.8712C31.7193 35.0943 30.3163 32.5732 29.6144 31.2661H29.5681C29.6144 32.5732 29.6144 35.1398 29.6144 38.8748H28.9125V30.5656H29.9415C32.0934 34.3461 33.5434 36.8672 34.2453 38.1743ZM42.664 30.5656H43.3659V38.8741H42.664V30.5656ZM53.2825 38.3144C53.6222 37.0797 53.9809 35.8501 54.3584 34.6263L55.5747 30.5649H56.2766L53.7043 38.8741H52.8621L50.289 30.5649H50.9909L52.2072 34.6719C52.5904 35.8786 52.9489 37.0931 53.2825 38.3144ZM66.801 34.253V34.8127H63.8532V38.3144H67.7358V38.8741H63.152V30.5656H67.5955V31.1253H63.8532V34.253H66.801ZM75.5953 34.7657V31.1253H76.8572C78.541 31.1253 79.0561 31.7781 79.0561 32.9466C79.0561 34.1136 78.355 34.7664 77.1843 34.7664L75.5953 34.7657ZM77.6994 35.2337C78.8224 35.0936 79.758 34.3931 79.758 32.8989C79.758 31.2184 78.635 30.5656 76.9049 30.5656H74.8927V38.8748H75.5953V35.3275H77.0439L79.2898 38.8748H80.1777L77.6994 35.2337ZM90.375 31.9652C90.1883 31.4986 89.7679 30.9375 88.8316 30.9375C88.3178 30.9375 87.8504 31.1253 87.5697 31.4041C87.336 31.5918 87.1956 31.9182 87.1956 32.3385C87.1956 32.805 87.3823 33.1791 87.663 33.4124C87.9901 33.6919 88.3186 33.8789 89.2064 34.2985C90.0023 34.7195 90.4227 34.9058 90.7498 35.233C91.0312 35.5594 91.312 36.0259 91.312 36.6788C91.312 37.2399 91.0783 37.7995 90.7035 38.2206C90.2816 38.5925 89.6738 39.0135 88.786 39.0135C87.336 39.0135 86.6341 38.3592 86.3534 37.5186L87.0075 37.4255C87.2426 37.9396 87.8034 38.4993 88.786 38.4993C89.4401 38.4993 89.862 38.2198 90.189 37.892C90.4227 37.6125 90.6094 37.1922 90.6094 36.7726C90.6094 36.2115 90.3757 35.8851 90.142 35.6042C89.862 35.4179 89.5349 35.2322 88.6456 34.7636C87.663 34.2971 87.3823 34.1107 87.1022 33.8305C86.7738 33.5041 86.4937 33.0376 86.4937 32.3833C86.4937 31.8706 86.6804 31.4026 87.0545 31.0307C87.4763 30.6573 88.0371 30.4234 88.8793 30.4234C90.189 30.4234 90.7968 31.0762 91.0312 31.8706L90.375 31.9652ZM98.4204 30.5656H99.123V38.8741H98.4204V30.5656ZM111.565 31.1253H109.132V38.8741H108.431V31.1253H106.045V30.5656H111.565V31.1253ZM120.827 35.4669V38.8741H120.125V35.4669L117.646 30.5649H118.442L119.47 32.7126C119.797 33.4586 120.125 34.1598 120.498 34.9058C120.872 34.1598 121.201 33.4124 121.528 32.7126L122.556 30.5649H123.305L120.827 35.4669Z" fill="#9B99AB"/>
<path d="M16.0029 28.0898H123.353" stroke="#9B99AB" stroke-width="8.43035" stroke-miterlimit="2.613"/>
<path fill-rule="evenodd" clip-rule="evenodd" d="M11.9799 10.5847C10.5298 7.41003 11.4654 14.2265 10.4365 16.3735C9.64129 18.101 9.2672 18.7076 7.77013 20.4819C6.78824 21.5558 5.10377 24.0769 4.40191 24.4502C4.16819 22.0223 5.71158 19.5019 6.88087 17.2611C7.30127 16.3273 9.73392 12.2196 10.2484 8.6247C10.9966 3.11603 7.20793 -1.36573 7.44236 0.268529C7.86276 2.46247 8.28388 4.14295 7.95682 5.96353C7.02124 11.426 5.89826 12.0326 3.98079 15.7207C3.13856 17.2148 -0.228958 22.1631 0.00475857 26.738C0.332532 33.1342 4.26154 36.7761 5.47786 37.7099C6.22675 38.1764 5.10377 34.4414 5.38451 32.2944C5.89898 29.2591 7.02195 27.1121 8.70571 25.1052C10.8576 22.5379 12.4473 20.4371 12.8221 16.9354C13.1029 14.4122 11.9799 10.5377 11.9799 10.5847Z" fill="#9B99AB"/>
<path fill-rule="evenodd" clip-rule="evenodd" d="M8.61239 38.8748C8.79979 35.9804 9.22091 34.0204 10.3432 32.5255C11.045 31.4993 12.2607 29.2115 12.074 26.9237C12.0276 25.7098 10.5306 21.8346 10.5769 24.5427C10.4836 25.7098 10.5769 26.2694 10.2498 27.3433C9.26794 30.1922 6.4612 31.4517 6.36715 34.7664C6.2738 36.7748 8.47202 40.2296 8.61239 38.8748ZM16.3771 47.652V47.6051C16.7982 47.652 17.1723 47.652 17.5934 47.652C17.8741 47.652 18.2952 47.652 18.6693 47.6051L18.7164 47.652L18.6693 47.8853L18.623 47.9322C18.4356 47.9322 18.0615 47.9322 18.0145 48.0709C17.9211 48.2586 17.6874 49.378 17.5 50.592C18.576 49.6589 20.0253 48.1178 20.0723 47.9322C20.0723 47.8376 20.0723 47.7445 20.1187 47.6513V47.6044C20.3061 47.6513 20.4927 47.6513 20.7272 47.6513C20.9146 47.6513 21.1483 47.6513 21.3357 47.6044L21.382 47.6513L21.3357 47.8846L21.2887 47.9315C20.9616 47.9315 20.8212 47.9315 20.3531 48.3511L18.2952 50.4056L20.2127 52.8335C20.5868 53.3001 20.7272 53.3463 21.102 53.3463L21.1483 53.3932L21.102 53.6265L21.0549 53.672C20.8212 53.6265 20.6338 53.6265 20.4001 53.6265C20.1664 53.6265 19.979 53.6265 19.7453 53.672C19.4182 53.1593 18.3416 51.7597 17.5 50.7313C17.2663 51.8521 17.1259 52.926 17.1259 53.1123C17.1259 53.2524 17.2193 53.3456 17.8278 53.3456L17.8741 53.3925L17.8278 53.6258L17.7808 53.6713C17.4067 53.6258 16.9856 53.6258 16.6115 53.6258H15.4422L15.4892 53.3925L15.5355 53.3456C15.7229 53.3456 16.097 53.3456 16.1904 53.2069C16.3307 52.8791 17.0326 48.4912 17.0326 48.1648C17.0326 48.0247 16.9856 47.9315 16.3307 47.9315V47.8846L16.3771 47.652ZM24.0013 50.3132C24.0013 51.013 23.1121 51.5726 22.3176 51.6658C22.5983 50.6851 22.785 49.8922 23.5339 49.8922C23.8147 49.8929 24.0013 50.033 24.0013 50.3132ZM21.4754 52.601C21.4754 53.3939 22.0368 53.768 22.5513 53.768C23.2525 53.768 24.0947 53.1607 24.3284 52.9274L24.3747 52.8805L24.3284 52.6942H24.2821C23.908 53.0206 23.3928 53.3015 22.9724 53.3015C22.5983 53.3015 22.2242 53.0206 22.2242 52.367C22.2242 52.1337 22.2706 52.0406 22.2706 51.9005C24.1887 51.5286 24.7965 50.7811 24.7965 50.1738C24.7965 49.8474 24.5628 49.5195 23.9543 49.5195C23.2061 49.5195 22.3176 50.1269 22.0368 50.5471C21.7091 51.0137 21.4754 52.0399 21.4754 52.601ZM25.0303 50.4063L25.0773 50.3594C25.264 50.2193 26.1062 49.5665 26.4803 49.5665C26.714 49.5665 26.8074 49.6596 26.8074 49.8474C26.8074 50.0806 26.714 50.3139 26.4333 51.3408L26.4796 51.3877C27.0411 50.3601 28.1633 49.5665 28.7248 49.5665C29.0519 49.5665 29.146 49.7528 29.146 49.9398C29.146 50.1261 29.0056 50.7328 28.8189 51.387C28.6785 52.0868 28.4448 52.7397 28.4448 52.9274C28.4448 53.0206 28.5382 53.1137 28.5852 53.1137C28.6785 53.1137 29.0063 52.9274 29.2863 52.6942H29.3334L29.4267 52.8343V52.8798C28.9593 53.2531 28.3037 53.7204 27.9767 53.7204C27.79 53.7204 27.6026 53.5803 27.6026 53.3008C27.6026 52.7866 28.2574 50.966 28.2574 50.4063C28.2574 50.2662 28.1641 50.2186 28.07 50.2186C27.6959 50.2186 26.8537 51.013 26.5266 51.7135C26.2922 52.18 26.1525 52.9274 26.0585 53.5803C25.7777 53.6272 25.497 53.6272 25.2633 53.7204L25.217 53.6734C25.4977 52.8342 25.9188 50.8259 25.9188 50.3594C25.9188 50.2662 25.8718 50.2193 25.7784 50.2193C25.6844 50.2193 25.4044 50.3594 25.1699 50.5471H25.1229L25.0303 50.4063ZM31.9534 52.7397V52.7866C31.2052 53.4395 30.6908 53.7197 30.363 53.7197C30.0352 53.7197 30.0359 53.4864 30.0359 53.3932C30.0359 53.1123 30.457 51.2455 30.6444 50.358H29.8956V50.1717H29.9419C30.1763 50.0785 30.5504 49.9384 30.7371 49.7983L30.9708 48.3511C31.2986 48.211 31.486 48.1178 31.719 48.0246L31.813 48.1178C31.6727 48.4442 31.5786 49.0509 31.3919 49.8915C31.8601 49.8915 32.2341 49.8459 32.3745 49.7983L32.4208 49.8915C32.3745 49.9846 32.3275 50.2179 32.2805 50.3125V50.358C31.9997 50.358 31.6256 50.3125 31.2986 50.3125C30.8775 52.5526 30.8304 52.7866 30.8304 52.9267C30.8304 53.0668 30.8775 53.113 30.9708 53.113C31.1112 53.113 31.3919 52.9729 31.813 52.6465H31.8593L31.9534 52.7397ZM32.3745 50.4063V50.3594C33.2631 49.7065 33.6372 49.5188 33.8716 49.5188C34.059 49.5188 34.1987 49.6589 34.1987 49.8467C34.1987 50.3132 33.5438 52.2731 33.5438 52.8343C33.5438 53.0206 33.5908 53.0675 33.6842 53.0675C34.0112 53.0675 35.0409 51.8991 35.2283 51.3394C35.462 50.6851 35.5553 50.2186 35.6957 49.7058C35.8361 49.7058 36.3035 49.6113 36.3976 49.5181L36.4909 49.6113C36.2565 50.1254 35.742 52.6003 35.742 52.8798C35.742 53.0199 35.7891 53.0675 35.8824 53.0675C35.9757 53.0675 36.1632 53.0206 36.5372 52.6942H36.5843L36.6776 52.8343V52.8798C36.1632 53.3463 35.5083 53.7204 35.1805 53.7204C34.9931 53.7204 34.8998 53.6272 34.8998 53.3939C34.8998 53.2076 34.9461 52.8343 35.2269 51.8991L35.1798 51.8536C34.7587 52.601 33.7298 53.7204 33.075 53.7204C32.8412 53.7204 32.7009 53.5803 32.7009 53.3008C32.7009 52.7866 33.2624 51.013 33.2624 50.4063C33.2624 50.2662 33.216 50.2186 33.122 50.2186C33.0279 50.2186 32.8412 50.3132 32.4672 50.592V50.5464L32.3745 50.4063ZM40.0922 52.8343L40.0458 52.9274C39.2977 53.4871 38.7832 53.768 38.2687 53.768C37.5198 53.768 37.1458 53.1607 37.1458 52.414C37.1458 51.9474 37.3324 50.9667 37.8006 50.3594C37.9873 50.2193 38.0343 50.1731 38.5025 49.8929C39.0639 49.5665 39.2977 49.4733 39.5784 49.4733C39.9055 49.4733 40.1869 49.612 40.3736 49.7066V49.7521C40.3266 50.0799 40.2332 50.4063 40.2332 50.7797L40.1869 50.8252H39.9525V50.7797V50.1254C39.9055 50.0799 39.5314 49.9391 39.2043 49.9391C38.5495 49.9391 38.3621 50.3587 38.2224 50.7797C38.035 51.387 37.9417 51.9467 37.9417 52.2731C37.9417 52.601 37.988 53.3008 38.6428 53.3008C38.9243 53.3008 39.2513 53.2076 39.9995 52.6465H40.0458L40.0922 52.8343ZM44.3952 52.9274V52.9729C43.9741 53.3463 43.3663 53.7204 43.226 53.7204C42.9922 53.7204 42.8989 53.534 42.197 51.5271C41.7759 51.9467 41.5885 52.2269 41.4018 53.534C41.1681 53.5795 40.8403 53.6272 40.6536 53.7204L40.5603 53.6734C40.8874 52.6472 41.7296 48.7714 41.7296 48.2117C41.7296 47.9322 41.6833 47.9322 40.9807 47.9322V47.6975H41.0277C41.4489 47.6975 42.1037 47.5112 42.6181 47.3256L42.7115 47.4187C42.5248 47.9329 42.103 50.2193 41.7759 51.6203V51.6658C43.0385 50.0799 43.7874 49.5181 44.3482 49.5181C44.4416 49.5181 44.5356 49.5181 44.6297 49.565C44.5826 49.7514 44.4893 49.9384 44.4893 50.1724C44.396 50.1724 44.3019 50.1254 44.1622 50.1254C43.6478 50.1254 43.32 50.3132 42.7592 50.8729C43.4141 52.8798 43.5074 53.0675 43.6941 53.0675C43.8815 53.0675 44.0219 52.9729 44.2556 52.8343H44.3019L44.3952 52.9274ZM44.5826 50.4063V50.3594C45.0971 49.9398 45.7049 49.5188 45.9857 49.5188C46.1731 49.5188 46.3597 49.612 46.3597 50.033C46.3597 50.5927 46.1253 51.8066 46.1253 52.6942C46.1253 52.8805 46.2187 52.9736 46.3127 52.9736C46.5935 52.9736 47.1079 52.3663 47.4357 51.7611C47.8098 51.0599 48.0442 49.8474 48.0905 49.7066C48.5116 49.612 48.605 49.612 48.8857 49.5188L48.9321 49.612C48.3706 51.0592 47.7628 54.0013 47.1079 54.8874C46.8272 55.2607 46.032 56.0558 45.3771 56.0558C45.2724 56.0566 45.1686 56.0365 45.0718 55.9969C44.9749 55.9572 44.8869 55.8987 44.8129 55.8248C44.7389 55.7509 44.6804 55.663 44.6407 55.5663C44.6011 55.4696 44.5811 55.3659 44.5819 55.2615C44.7223 55.1683 44.909 55.0751 45.0494 54.935L45.1427 54.982V55.0751C45.1427 55.3084 45.2831 55.6348 45.6572 55.6348C46.1246 55.6348 46.5464 55.0275 46.7802 54.2808L47.388 52.3208H47.3409C46.5927 53.3947 46.1716 53.7211 45.7975 53.7211C45.5168 53.7211 45.3764 53.581 45.3764 53.1614C45.3764 52.3208 45.5638 51.4809 45.5638 50.5934C45.5638 50.267 45.5175 50.1738 45.3301 50.1738C45.2368 50.1738 44.956 50.3601 44.7216 50.5471L44.5826 50.4063ZM50.2424 48.7714C50.1961 48.3048 50.1961 48.1185 50.1961 47.9784C50.1961 47.652 50.3365 47.5119 50.6172 47.5119C50.898 47.5119 51.0383 47.652 51.0383 47.9784C51.0383 48.1185 50.9913 48.3048 50.9443 48.7714L50.8509 49.612C50.8509 49.8929 50.7576 49.9398 50.6172 49.9398C50.4769 49.9398 50.3835 49.8929 50.3365 49.612L50.2424 48.7714ZM54.1251 50.7804H54.0781C54.0781 50.5927 54.1251 50.3139 54.1251 50.2662C54.1251 50.1261 53.6107 49.9853 53.2829 49.9853C52.628 49.9853 52.4406 50.3587 52.4406 50.5927C52.4406 51.6665 54.4522 50.7328 54.4522 52.133C54.4522 52.6472 54.2648 52.9736 53.704 53.347C53.2829 53.6279 53.0492 53.7204 52.581 53.7204C52.2405 53.7157 51.9052 53.636 51.5991 53.4871V53.4402C51.6925 53.1137 51.7395 52.6942 51.7865 52.3663L51.8328 52.3208H52.0202V52.9736C52.0666 53.0682 52.5347 53.3015 52.9558 53.3015C53.4703 53.3015 53.8444 53.0682 53.8444 52.5071C53.8444 52.0406 53.5173 51.9474 52.9095 51.8998C52.301 51.8066 51.8336 51.5734 51.8336 50.9667C51.8336 50.1261 53.0028 49.5195 53.6577 49.5195C53.9384 49.5195 54.2192 49.5665 54.4999 49.7073L54.5469 49.7528C54.4066 50.1738 54.4066 50.267 54.3595 50.7804H54.1251ZM62.3102 49.1454V49.0999C62.3102 48.9122 62.3102 48.4457 62.2639 48.4001C61.8284 48.1295 61.3267 47.9839 60.8138 47.9791C59.036 47.9791 58.4752 49.5195 58.4752 51.0599C58.4752 52.788 59.5512 53.2083 60.3927 53.2083C61.2813 53.2083 61.8898 52.9274 62.4042 52.601L62.4506 52.6465C62.4506 52.7397 62.4042 52.8798 62.4042 53.0199C61.7957 53.4395 61.1416 53.7673 60.206 53.7673C58.4282 53.7673 57.5397 52.7866 57.5397 51.0585C57.5397 48.632 59.5512 47.5112 61.1416 47.5112C61.7964 47.5112 62.3109 47.6513 62.8254 47.8376V47.8846C62.685 48.3041 62.5916 48.7251 62.5916 49.0985L62.5446 49.144H62.3102V49.1454ZM63.808 52.9274C63.808 51.9467 64.2284 50.3594 64.4621 50.1731C64.5569 50.0799 64.7906 49.9853 65.0706 49.9853C65.3521 49.9853 65.5858 50.0323 65.8195 50.1731C65.6328 51.8998 64.1357 53.1137 63.902 53.1137C63.808 53.1137 63.808 53.0675 63.808 52.9274ZM66.2862 49.7521C65.9121 49.5657 65.6321 49.5188 65.444 49.5188C64.7428 49.5188 63.9939 50.1731 63.8536 50.3132C63.5265 50.7328 63.012 51.9467 63.012 53.0675C63.012 53.5803 63.1061 53.7204 63.3861 53.7204C64.0417 53.7204 65.1647 52.4132 65.538 51.7604C65.258 52.601 65.1176 53.2076 65.1176 53.4395C65.1176 53.6272 65.211 53.7204 65.4447 53.7204C65.7261 53.7204 66.1936 53.4871 66.8947 52.8798V52.8343L66.8014 52.6942C66.5199 52.9736 66.2406 53.1137 66.1002 53.1137C66.0055 53.1137 65.9599 53.0682 65.9599 52.9736C65.9599 52.6942 66.5684 49.986 66.7544 49.612L66.5677 49.5188L66.2862 49.7521ZM67.2688 50.4063V50.3594C67.5503 50.0799 68.3918 49.5188 68.7666 49.5188C68.9533 49.5188 69.0466 49.6589 69.0466 49.8467C69.0466 50.033 68.8599 50.7797 68.7196 51.2925V51.3394C69.0937 50.5464 69.7955 49.5181 70.4033 49.5181C70.4967 49.5181 70.5437 49.565 70.59 49.565V49.6105C70.5014 49.9301 70.4547 50.2597 70.4511 50.5912H70.3107C70.2159 50.4511 70.1226 50.4049 69.9822 50.4049C69.3737 50.4049 68.4859 51.712 68.2985 53.5788C67.878 53.6258 67.7847 53.6258 67.504 53.7189L67.4106 53.672C67.6443 53.2524 68.1595 50.8245 68.1595 50.358C68.1595 50.2648 68.1595 50.2179 68.0191 50.2179C67.8788 50.2179 67.6907 50.3125 67.3636 50.5912L67.2688 50.4063ZM73.1623 50.3132C73.1623 51.013 72.2731 51.5726 71.4786 51.6658C71.76 50.6851 71.946 49.8922 72.6949 49.8922C72.9749 49.8929 73.1623 50.033 73.1623 50.3132ZM70.637 52.601C70.637 53.3939 71.1978 53.768 71.713 53.768C72.4141 53.768 73.2564 53.1607 73.4901 52.9274L73.5371 52.8805L73.4901 52.6942H73.4445C73.0704 53.0206 72.5552 53.3015 72.1334 53.3015C71.7607 53.3015 71.3859 53.0206 71.3859 52.367C71.3859 52.1337 71.4315 52.0406 71.4315 51.9005C73.349 51.5286 73.9575 50.7811 73.9575 50.1738C73.9575 49.8474 73.7238 49.5195 73.163 49.5195C72.3671 49.5195 71.4793 50.1269 71.1978 50.5471C70.8708 51.0137 70.637 52.0399 70.637 52.601ZM76.8576 50.3132C76.8576 51.013 75.9683 51.5726 75.1739 51.6658C75.4553 50.6851 75.6413 49.8922 76.3902 49.8922C76.6709 49.8929 76.8576 50.033 76.8576 50.3132ZM74.3316 52.601C74.3316 53.3939 74.8924 53.768 75.4076 53.768C76.1087 53.768 76.951 53.1607 77.1847 52.9274L77.2317 52.8805L77.1384 52.6942C76.7643 53.0206 76.2491 53.3015 75.8287 53.3015C75.4546 53.3015 75.0798 53.0206 75.0798 52.367C75.0798 52.1337 75.0798 52.0406 75.1268 51.9005C76.9973 51.5286 77.6058 50.7811 77.6058 50.1738C77.6058 49.8474 77.4177 49.5195 76.8113 49.5195C76.0624 49.5195 75.1731 50.1269 74.8924 50.5471C74.5653 51.0137 74.3316 52.0399 74.3316 52.601ZM77.8402 50.4063V50.3594C78.1673 50.0799 78.9618 49.5188 79.3366 49.5188C79.5247 49.5188 79.618 49.6589 79.618 49.8467C79.618 50.033 79.4313 50.7797 79.291 51.2925V51.3394C79.6651 50.5464 80.3669 49.5181 80.9747 49.5181C81.0681 49.5181 81.1614 49.565 81.1614 49.565V49.6105C81.1158 49.9384 81.021 50.3118 81.021 50.5912H80.8821C80.7873 50.4511 80.694 50.4049 80.5536 50.4049C79.9451 50.4049 79.0573 51.712 78.8699 53.5788C78.4494 53.6258 78.3561 53.6258 78.0754 53.7189L77.982 53.672C78.262 53.2524 78.7295 50.8245 78.7295 50.358C78.7295 50.2648 78.7295 50.2179 78.5905 50.2179C78.4958 50.2179 78.262 50.3125 77.982 50.5912H77.935L77.8402 50.4063ZM87.6157 47.652L87.6627 47.6051C88.0368 47.6051 88.4116 47.652 88.7857 47.652C89.1598 47.652 89.5346 47.6051 89.9072 47.6051L89.9543 47.652L89.9072 47.8853L89.8616 47.9322C89.2531 47.9322 89.2531 47.9322 89.1128 48.7714C89.0657 49.0992 88.4116 52.7866 88.4116 53.0675C88.4116 53.2538 88.552 53.3008 89.1605 53.347V53.3939L89.1135 53.6272V53.6727C88.832 53.6272 88.5527 53.6272 88.2712 53.6272H87.4297C87.5231 53.2538 87.6164 52.8798 87.6634 52.5533C86.8689 53.4395 86.1671 53.7673 85.4189 53.7673C84.5296 53.7673 83.8755 53.3463 83.8755 52.4132C83.8755 51.9937 84.0145 51.3394 84.1092 50.6396L84.2959 49.7066C84.3429 49.24 84.484 48.4457 84.484 48.2117C84.484 47.9322 84.437 47.9322 83.8285 47.9322L83.7815 47.8853L83.8285 47.652L83.8755 47.6051C84.0145 47.6051 84.5296 47.652 84.8567 47.652C85.0904 47.652 85.4189 47.652 85.5122 47.6051C85.1382 49.4264 84.7178 51.5734 84.7178 52.2731C84.7178 53.0675 85.4189 53.2076 85.746 53.2076C86.5405 53.2076 87.196 52.6465 87.7568 52.0392C87.8972 51.1061 88.3653 48.3987 88.3653 48.211C88.3653 47.9315 88.1786 47.9315 87.6164 47.9315L87.5708 47.8846L87.6157 47.652ZM89.8616 50.4063V50.3594C90.0483 50.2193 90.8899 49.5665 91.2647 49.5665C91.4984 49.5665 91.5917 49.6596 91.5917 49.8474C91.5917 50.0806 91.4984 50.3139 91.2647 51.3408V51.3877C91.8254 50.3601 92.9484 49.5665 93.5569 49.5665C93.8384 49.5665 93.931 49.7528 93.931 49.9398C93.931 50.1261 93.7906 50.7328 93.604 51.387C93.4636 52.0868 93.2755 52.7397 93.2755 52.9274C93.2755 53.0206 93.3225 53.1137 93.4159 53.1137C93.5092 53.1137 93.7899 52.9274 94.0714 52.6942H94.117L94.2118 52.8343V52.8798C93.7429 53.2531 93.1344 53.7204 92.7617 53.7204C92.5736 53.7204 92.4332 53.5803 92.4332 53.3008C92.4332 52.7866 93.0418 50.966 93.0888 50.4063C93.0888 50.2662 92.9955 50.2186 92.8551 50.2186C92.481 50.2186 91.6388 51.013 91.3117 51.7135C91.1236 52.18 90.9376 52.9274 90.8443 53.5803C90.5628 53.6272 90.3291 53.6272 90.0483 53.7204L90.0027 53.6734C90.2828 52.8342 90.7039 50.8259 90.7039 50.3594C90.7039 50.2662 90.6569 50.2193 90.6091 50.2193C90.4702 50.2193 90.1887 50.3594 89.955 50.5471H89.908L89.8616 50.4063ZM94.6322 50.4063V50.3594C95.0996 49.986 95.8015 49.5665 96.13 49.5665C96.2689 49.5665 96.457 49.6596 96.457 49.8474C96.457 50.2669 95.8015 52.367 95.8015 52.8812C95.8015 53.0213 95.8485 53.1145 95.9418 53.1145C96.0822 53.1145 96.2689 52.9744 96.643 52.6949L96.7363 52.8812V52.9281C96.0352 53.4409 95.6148 53.7211 95.2877 53.7211C95.0526 53.7211 94.9592 53.581 94.9592 53.3477C94.9592 52.9281 95.5677 50.9667 95.5677 50.407C95.5677 50.2669 95.5222 50.1738 95.4274 50.1738C95.334 50.1738 95.1473 50.3139 94.7262 50.5934L94.6322 50.4063ZM96.457 47.6051C96.6437 47.6051 96.8311 47.7928 96.8311 48.0261C96.8311 48.2593 96.643 48.6789 96.2226 48.6789C96.1732 48.6797 96.1243 48.6706 96.0785 48.6521C96.0328 48.6336 95.9912 48.6061 95.9564 48.5713C95.9215 48.5365 95.8939 48.495 95.8754 48.4493C95.8569 48.4037 95.8477 48.3548 95.8485 48.3056C95.8485 47.9784 96.13 47.6051 96.457 47.6051ZM99.8245 50.0799C100.011 49.8922 100.199 49.7066 100.338 49.5657C100.385 49.5188 100.433 49.5188 100.573 49.5188C100.9 49.5188 101.134 49.7521 101.134 50.3132C101.134 51.8536 99.7298 53.7673 98.6082 53.7673C97.9997 53.7673 97.6256 53.2531 97.6256 52.6003C97.6256 51.6658 98.4678 50.5457 98.8419 50.1724V50.1254C98.6449 50.1866 98.4398 50.218 98.2334 50.2186C98.0453 50.2186 97.952 50.1731 97.8116 50.1731C97.6726 50.1731 97.5779 50.3132 97.3912 50.6858L97.3441 50.7328H97.2052L97.1582 50.6858C97.3919 50.1261 97.4396 49.9398 97.5323 49.6596C97.7189 49.6127 97.8593 49.6127 97.9527 49.6127C98.093 49.6127 98.5149 49.6596 98.8419 49.6596C99.0286 49.6596 99.216 49.6127 99.3571 49.6127L99.4504 49.7073C98.7016 50.5479 98.3745 51.7142 98.3745 52.367C98.3745 53.0213 98.7016 53.2545 99.0286 53.2545C100.058 53.2545 100.479 51.4809 100.479 50.6865C100.479 50.3601 100.338 50.1738 100.199 50.1738C100.104 50.1738 100.011 50.1738 99.9172 50.2193L99.8245 50.0799ZM104.221 50.3132C104.221 51.013 103.286 51.5726 102.491 51.6658C102.771 50.6851 103.005 49.8922 103.753 49.8922C104.035 49.8929 104.221 50.033 104.221 50.3132ZM101.648 52.601C101.648 53.3939 102.256 53.768 102.771 53.768C103.426 53.768 104.269 53.1607 104.548 52.9274V52.8805L104.502 52.6942H104.455C104.081 53.0206 103.613 53.3015 103.146 53.3015C102.772 53.3015 102.397 53.0206 102.397 52.367C102.397 52.1337 102.444 52.0406 102.492 51.9005C104.362 51.5286 104.971 50.7811 104.971 50.1738C104.971 49.8474 104.737 49.5195 104.176 49.5195C103.427 49.5195 102.492 50.1269 102.211 50.5471C101.929 51.0137 101.648 52.0399 101.648 52.601ZM105.204 50.4063V50.3594C105.485 50.0799 106.327 49.5188 106.654 49.5188C106.887 49.5188 106.981 49.6589 106.981 49.8467C106.981 50.033 106.747 50.7797 106.654 51.2925V51.3394C106.981 50.5464 107.73 49.5181 108.337 49.5181C108.431 49.5181 108.478 49.565 108.524 49.565V49.6105C108.435 49.93 108.388 50.2597 108.384 50.5912H108.197C108.15 50.4511 108.057 50.4049 107.916 50.4049C107.307 50.4049 106.372 51.712 106.232 53.5788C105.811 53.6258 105.718 53.6258 105.437 53.7189L105.344 53.672C105.578 53.2524 106.091 50.8245 106.091 50.358C106.091 50.2648 106.046 50.2179 105.952 50.2179C105.812 50.2179 105.624 50.3125 105.297 50.5912H105.251L105.204 50.4063ZM110.864 50.7804V50.2662C110.864 50.1261 110.397 49.9853 110.068 49.9853C109.367 49.9853 109.226 50.3587 109.226 50.5927C109.226 51.6665 111.238 50.7328 111.238 52.133C111.238 52.6472 111.004 52.9736 110.489 53.347C110.067 53.6279 109.788 53.7204 109.366 53.7204C108.946 53.7204 108.572 53.5803 108.384 53.4871L108.338 53.4402C108.431 53.1137 108.525 52.6942 108.572 52.3663V52.3208H108.758L108.806 52.3663V52.9736C108.806 53.0682 109.321 53.3015 109.693 53.3015C110.209 53.3015 110.583 53.0682 110.583 52.5071C110.583 52.0406 110.256 51.9474 109.693 51.8998C109.086 51.8066 108.617 51.5734 108.617 50.9667C108.617 50.1261 109.74 49.5195 110.396 49.5195C110.676 49.5195 110.957 49.5665 111.284 49.7073V49.7528C111.19 50.1738 111.19 50.267 111.097 50.7804H110.864ZM111.799 50.4063V50.3594C112.266 49.986 112.922 49.5665 113.295 49.5665C113.436 49.5665 113.624 49.6596 113.624 49.8474C113.624 50.2669 112.968 52.367 112.968 52.8812C112.968 53.0213 113.015 53.1145 113.109 53.1145C113.202 53.1145 113.436 52.9744 113.764 52.6949H113.81L113.903 52.8812V52.9281C113.202 53.4409 112.782 53.7211 112.453 53.7211C112.219 53.7211 112.08 53.581 112.08 53.3477C112.08 52.9281 112.735 50.9667 112.735 50.407C112.735 50.2669 112.687 50.1738 112.594 50.1738C112.501 50.1738 112.267 50.3139 111.893 50.5934H111.847L111.799 50.4063ZM113.576 47.6051C113.81 47.6051 113.998 47.7928 113.998 48.0261C113.998 48.2593 113.81 48.6789 113.389 48.6789C113.108 48.6789 112.968 48.4926 112.968 48.3056C112.968 47.9784 113.295 47.6051 113.576 47.6051ZM116.477 52.7397V52.7866C115.682 53.4395 115.215 53.7197 114.886 53.7197C114.559 53.7197 114.559 53.4864 114.559 53.3932C114.559 53.1123 114.933 51.2455 115.12 50.358H114.419V50.1717H114.466C114.7 50.0785 115.075 49.9384 115.215 49.7983L115.495 48.3511C115.822 48.211 116.01 48.1178 116.244 48.0246L116.337 48.1178C116.197 48.4442 116.056 49.0509 115.917 49.8915C116.337 49.8915 116.759 49.8459 116.899 49.7983L116.945 49.8915C116.899 49.9846 116.805 50.2179 116.805 50.3125L116.759 50.358C116.525 50.358 116.15 50.3125 115.823 50.3125C115.402 52.5526 115.355 52.7866 115.355 52.9267C115.355 53.0668 115.402 53.113 115.496 53.113C115.636 53.113 115.87 52.9729 116.338 52.6465H116.385L116.477 52.7397Z" fill="#9B99AB"/>
<path fill-rule="evenodd" clip-rule="evenodd" d="M116.757 50.4051V50.3582C117.271 49.9386 117.833 49.5176 118.16 49.5176C118.347 49.5176 118.487 49.6107 118.487 50.0317C118.487 50.5914 118.301 51.8054 118.301 52.6929C118.301 52.8792 118.394 52.9724 118.487 52.9724C118.769 52.9724 119.283 52.3651 119.61 51.7599C119.984 51.0587 120.219 49.8461 120.219 49.7053C120.686 49.6107 120.779 49.6107 121.061 49.5176L121.107 49.6107C120.546 51.058 119.937 54 119.283 54.8861C119.002 55.2595 118.16 56.0546 117.505 56.0546C117.13 56.0546 116.757 55.7267 116.71 55.2602C116.898 55.1671 117.084 55.0739 117.225 54.9338L117.319 54.9807V55.0739C117.319 55.3072 117.459 55.6336 117.834 55.6336C118.301 55.6336 118.722 55.0263 118.955 54.2795L119.564 52.3196H119.518C118.769 53.3934 118.348 53.7198 117.928 53.7198C117.694 53.7198 117.554 53.5797 117.554 53.1602C117.554 52.3196 117.694 51.4797 117.694 50.5921C117.694 50.2657 117.647 50.1726 117.506 50.1726C117.367 50.1726 117.132 50.3589 116.899 50.5459H116.852L116.757 50.4051Z" fill="#9B99AB"/>
</g>
<g clip-path="url(#clip1_110_14313)">
<path d="M279.618 9.16925H275.511V17.1512C275.511 19.7529 278.317 21.9757 281.786 21.9757C285.255 21.9757 288.291 19.7276 288.291 17.1512V9.16925H284.184V16.3681C284.184 17.5553 283.163 18.5152 281.914 18.5152C280.638 18.5152 279.618 17.5553 279.618 16.3429V9.16925ZM214.467 4.77414V21.3442H210.207V1.36415H217.885C221.227 1.36415 223.957 4.04163 223.957 7.30007C223.957 10.0786 221.992 12.4024 219.339 13.0087L225.258 21.3442H220.181L215.921 14.8021V10.0281H216.916C218.498 10.0281 219.773 8.86614 219.773 7.42636C219.773 5.98659 218.574 4.77414 216.993 4.77414H214.467ZM253.675 21.3442V0.404297H249.644V10.2807C248.573 9.24503 247.221 8.66407 245.665 8.66407C242.349 8.66407 239.645 11.5689 239.645 15.1809C239.645 18.7678 242.349 21.6978 245.665 21.6978C247.247 21.6978 248.726 21.0916 249.644 19.9802V21.3442H253.675ZM246.813 18.2878C245.18 18.2878 243.854 16.8481 243.854 15.0799C243.854 13.3118 245.18 11.872 246.813 11.872C248.445 11.872 249.772 13.3118 249.772 15.0799C249.746 16.8481 248.42 18.2878 246.813 18.2878ZM270.613 10.4827C271.71 9.47236 272.399 8.10836 272.399 6.61807C272.399 5.25407 271.863 4.01637 270.945 3.03126C269.975 1.99563 268.292 1.36415 265.996 1.36415H259.134V21.3442H268.011C271.404 21.2937 274.159 18.7425 274.159 15.6104C274.133 13.337 273.317 11.7204 270.613 10.4827ZM267.195 17.8837H263.343V4.95096H266.047C267.22 4.95096 268.215 5.83503 268.215 7.02222C268.215 8.2094 267.22 9.16925 266.047 9.16925H264.618V12.7813H267.246C268.674 12.7813 269.746 13.9432 269.746 15.3578C269.695 16.7723 268.751 17.8079 267.195 17.8837Z" fill="#9B99AB"/>
<path d="M228.829 13.6907C228.829 12.3519 229.926 11.2658 231.278 11.2658C232.63 11.2658 233.727 12.3519 233.727 13.6907H228.829ZM237.706 15.964C237.732 15.6861 237.757 15.4083 237.757 15.1304C237.808 10.8111 234.951 8.46199 231.278 8.46199C227.604 8.46199 224.62 11.4426 224.62 15.1304C224.62 18.8183 227.604 21.7989 231.278 21.7989C234.084 21.7989 236.278 20.5359 237.4 18.5657L234.135 17.0754C233.727 17.9595 232.757 18.5909 231.609 18.5909C230.104 18.5909 228.854 17.4543 228.854 15.964H237.706ZM290.179 0.404297H294.209V21.3442H290.179V0.404297ZM297.04 0.404297H301.071V21.3442H297.04V0.404297Z" fill="#9B99AB"/>
<path d="M246.379 35.1855C246.379 29.78 250.792 25.4102 256.251 25.4102C261.71 25.4102 266.123 29.78 266.123 35.1855C266.123 40.591 261.71 44.9608 256.251 44.9608C250.792 44.9608 246.379 40.5657 246.379 35.1855Z" fill="#D2D1DB"/>
<path fill-rule="evenodd" clip-rule="evenodd" d="M248.318 29.377C248.471 29.4528 248.624 29.5286 248.803 29.6296C249.542 30.1348 250.027 30.5642 251.149 31.4988C251.481 31.8272 251.864 32.3576 252.144 32.686C252.757 33.4437 253.19 33.9742 253.267 34.6057C253.445 35.8686 253.624 36.5759 254.109 37.8641C254.16 37.9904 254.364 38.1672 254.491 38.3188C254.797 38.6977 254.925 39.3039 255.486 39.6323C255.792 39.8091 255.843 39.8343 255.945 39.9101C256.098 40.0364 255.843 40.4911 255.052 40.39C255.461 40.5921 255.409 41.0468 254.823 41.072C253.675 41.1226 252.961 40.4658 252.808 40.289C252.731 40.2132 252.501 40.5163 252.093 40.6679C251.685 40.87 251.124 40.6679 250.69 40.7437C250.282 40.8194 249.746 41.072 249.313 41.0973C248.548 41.1226 248.445 40.5921 248.445 40.1374V39.9354C248.369 40.2132 248.088 40.6931 248.088 40.6931C247.986 40.9205 247.833 41.1983 247.553 41.2994L246.736 41.4004C246.099 41.6783 245.461 41.8803 244.798 42.1077C244.415 42.1834 243.981 42.1077 243.701 41.8803C243.471 41.7035 243.344 41.4762 243.216 41.2488C243.089 41.1983 242.91 41.2489 242.757 41.1983C242.629 41.1731 242.553 41.072 242.476 40.9963L241.915 40.0617C241.864 39.9354 241.864 39.7586 241.915 39.6323C242.017 39.4302 242.247 39.3292 242.476 39.3292C242.884 39.3039 243.344 39.1776 243.752 39.3292C243.93 39.1271 244.211 39.1523 244.466 39.1018C244.364 38.9503 244.211 38.8745 244.083 38.7482C243.344 38.925 242.527 38.7987 241.813 38.6724C241.15 38.5209 240.589 38.8997 239.925 38.7987L239.721 39.2281C239.415 39.5565 239.39 40.1122 238.931 40.3395C238.599 40.4153 238.344 40.6426 238.063 40.7942C237.553 41.072 236.864 40.9457 236.303 40.8447C236.074 40.8194 235.92 40.8447 235.716 40.9205C235.538 41.0468 235.334 41.2489 235.13 41.4004C234.798 41.5267 234.517 41.8046 234.16 41.8298C233.956 41.8298 233.752 41.7035 233.548 41.754C233.293 42.0319 233.165 42.4866 232.757 42.6129C232.349 42.7391 231.839 42.6381 231.431 42.5371C231.303 42.5876 231.227 42.6886 231.074 42.6634C230.793 42.5876 230.513 42.5118 230.257 42.3603C230.155 42.2592 230.13 42.1329 230.104 42.0319C230.104 41.8551 230.257 41.7035 230.334 41.552C230.359 41.3751 230.359 41.1226 230.436 40.9457C230.564 40.6679 230.844 40.4911 231.125 40.3648C231.15 40.1627 231.278 39.9859 231.456 39.8849C231.788 39.708 232.145 39.3039 232.579 39.5312L233.038 39.9101C233.446 39.7333 233.344 39.3292 233.548 39.0008C233.65 38.7734 233.778 38.5209 234.033 38.5209C234.211 38.4956 234.415 38.5461 234.594 38.5209C234.849 38.4451 235.13 38.344 235.308 38.142L235.283 37.9904C235.028 37.5105 234.951 36.9295 234.926 36.3486C234.466 36.3991 233.982 36.4749 233.497 36.3738C232.783 36.2728 232.094 35.7171 231.813 35.0098C231.507 34.3278 231.635 33.368 232.12 32.787C232.502 32.3323 232.936 31.9282 233.395 31.5746C233.242 31.524 233.063 31.5493 232.91 31.4988C232.247 31.3977 231.584 30.8168 231.431 30.16C231.329 29.7306 231.431 29.3265 231.635 28.9729C231.711 28.8971 231.788 28.8213 231.916 28.8718C232.247 28.9981 232.349 29.1749 232.655 29.3265L232.834 29.4275C233.676 29.7054 234.798 29.7054 235.13 30.741C235.334 31.5493 234.824 32.1555 234.237 32.6102C233.778 32.9386 233.319 33.3427 233.089 33.8226C232.987 34.1763 233.038 34.5299 233.344 34.7825C233.65 35.0856 234.186 35.0856 234.568 34.934C235.283 34.6309 235.946 34.1763 236.584 33.6963C237.196 33.2417 237.936 33.0649 238.726 33.0396C239.084 32.9638 239.39 32.8123 239.67 32.5849C240.155 32.1303 240.665 31.7514 241.277 31.5998C241.558 31.5493 241.839 31.524 242.119 31.4988C242.349 31.3977 242.502 31.1199 242.68 30.9936C243.522 30.2611 244.645 30.2863 245.537 29.7054C246.048 29.3265 246.609 29.0739 247.272 29.0992C247.578 29.1244 247.859 29.1749 248.114 29.276L248.318 29.377ZM249.16 37.9651C248.599 37.9904 248.241 38.1167 247.859 38.1672C247.884 38.5209 248.088 38.824 248.369 39.2029C248.522 38.6219 249.007 38.3946 249.16 37.9651ZM263.521 38.0914C263.777 38.4703 263.93 38.8492 264.159 39.2534C264.389 38.824 264.593 38.4198 264.797 38.1672C264.771 38.142 264.108 38.2177 263.521 38.0914ZM264.057 39.9606C264.032 40.0364 263.981 40.0617 263.879 40.0617C263.955 40.4153 263.7 41.072 263.062 41.0973C262.629 41.1226 261.914 40.6931 261.506 40.6679C261.073 40.6426 260.282 40.971 259.823 40.289C259.21 41.0215 258.496 41.2236 257.884 41.1983C257.527 41.1983 257.144 40.9963 257.68 40.5416C256.506 40.9205 256.506 40.1374 256.71 39.9859C256.838 39.8849 256.991 39.8091 257.425 39.3797C259.057 37.6873 258.445 34.7572 260.231 32.8123C260.919 32.0545 261.481 31.6251 262.884 30.64C263.368 30.3116 263.853 29.8317 264.312 29.5033L264.338 29.5538V29.5286C264.618 29.3265 264.873 29.1244 265.18 29.0486C265.817 28.9729 266.404 29.1749 266.889 29.5033C267.144 29.6801 267.348 29.8822 267.552 30.1348C267.705 30.2863 267.935 30.2863 268.139 30.3621C268.725 30.4632 269.235 30.6905 269.72 30.9936C270.052 31.1957 270.332 31.5493 270.741 31.5998C271.225 31.6756 271.659 31.8272 272.093 32.0797C272.603 32.4081 273.062 32.8123 273.674 32.9133C274.899 33.0396 275.919 33.7216 276.888 34.4036C277.449 34.732 278.113 35.1109 278.801 34.8835C279.005 34.8077 279.159 34.6309 279.21 34.4541C279.261 33.9995 278.98 33.6458 278.699 33.3175C278.113 32.6355 277.092 32.0545 277.22 31.0694C277.398 30.3369 278.215 29.9075 278.852 29.7054C279.21 29.5791 279.643 29.6296 279.949 29.3265C280.102 29.2255 280.179 28.8718 280.434 28.9981C280.638 29.1244 280.664 29.377 280.689 29.6043C280.791 30.3116 280.638 31.0189 279.975 31.423C279.669 31.6251 279.337 31.7009 278.98 31.7766C279.516 32.206 280.051 32.7365 280.357 33.3427C280.536 33.6963 280.638 33.9995 280.664 34.4036C280.638 35.1614 280.179 35.8181 279.516 36.197C279.133 36.3991 278.699 36.4749 278.24 36.4749C278.062 36.4749 277.909 36.4243 277.756 36.4243C277.832 36.778 277.832 37.2579 277.756 37.662C277.73 37.8641 277.602 38.0914 277.602 38.344C277.705 38.4703 277.858 38.4703 277.985 38.4703C278.317 38.4703 278.725 38.4451 278.903 38.7987C279.057 39.1271 279.133 39.506 279.261 39.8343C279.312 39.8849 279.337 40.0111 279.414 39.9859C279.643 39.7838 279.873 39.506 280.204 39.5817C280.511 39.7838 280.817 40.0111 281.123 40.2385C281.199 40.3143 281.225 40.4153 281.25 40.5416C281.505 40.6426 281.837 40.8194 281.914 41.1226C281.965 41.3246 281.939 41.5267 281.99 41.7035C282.067 41.9056 282.271 42.1582 282.118 42.4108L282.016 42.4866L281.046 42.7897C280.97 42.7897 280.893 42.7391 280.817 42.6634C280.306 42.6381 279.694 42.7897 279.286 42.436C279.108 42.2845 278.98 42.1077 278.852 41.9056C278.546 42.0571 278.113 42.1582 277.807 41.9561C277.169 41.4762 276.531 40.9963 275.664 41.0215C275.281 41.0973 274.822 41.1983 274.439 41.0468C274.082 40.7942 273.674 40.6679 273.393 40.289C272.985 39.8596 272.985 39.3544 272.832 38.824C272.271 38.9503 271.659 38.8745 271.098 38.8492C270.638 38.824 270.205 38.8997 269.771 39.0008C269.235 39.1018 268.649 39.1523 268.088 39.1271L267.807 39.3292C267.935 39.3544 268.062 39.3544 268.164 39.4554L268.266 39.5565C268.725 39.607 269.261 39.5312 269.695 39.6323C269.797 39.6575 269.899 39.7586 269.95 39.8596C270.001 39.9859 270.001 40.1374 269.924 40.2385C269.695 40.5416 269.567 40.8952 269.261 41.1478C269.184 41.2489 268.955 41.1226 268.929 41.2994C268.827 41.754 268.394 42.1329 267.96 42.234C267.781 42.2592 267.577 42.234 267.424 42.1834C266.889 42.0066 266.353 41.8551 265.817 41.7035C265.639 41.653 265.486 41.4762 265.333 41.3751C265.103 41.3751 264.771 41.4509 264.618 41.2488C264.542 41.1983 264.465 41.0215 264.44 40.9457C264.261 40.7184 264.134 40.3143 264.057 39.9606Z" fill="#D2D1DB"/>
<path fill-rule="evenodd" clip-rule="evenodd" d="M248.062 32.5583C248.215 32.9372 248.215 33.4424 248.113 33.8465C248.088 33.8718 248.062 33.8718 248.037 33.8465C247.96 33.4929 247.884 33.1393 247.756 32.7856C247.68 32.5836 247.424 32.4067 247.526 32.1794C247.577 32.1289 247.68 32.1289 247.756 32.1542C247.884 32.2805 247.96 32.4067 248.062 32.5583ZM252.144 36.0946C252.424 36.423 252.628 36.7766 252.526 37.206C252.475 37.2818 252.501 37.4333 252.373 37.4586C252.322 37.4839 252.271 37.4333 252.271 37.3828C252.246 37.1555 252.246 36.9029 252.118 36.7261C251.965 36.5745 251.786 36.2714 251.531 36.2714C251.353 36.3219 251.225 36.524 251.123 36.6503C251.123 36.6756 251.098 36.6756 251.072 36.6503C250.97 36.3977 251.174 36.1956 251.251 35.9936C251.404 35.842 251.378 35.4126 251.71 35.5389C251.94 35.6904 251.991 35.943 252.144 36.0946ZM251.608 39.1004C251.633 39.252 251.633 39.4793 251.48 39.5804C251.327 39.6309 251.123 39.6561 250.945 39.6309C250.894 39.6056 250.843 39.5804 250.868 39.5298C250.945 39.3025 251.174 39.0499 251.429 38.9994C251.48 38.9994 251.582 38.9994 251.608 39.1004ZM232.986 29.8808C233.598 30.0324 234.262 30.0324 234.721 30.5123C234.976 30.8154 235.001 31.3459 234.797 31.649C234.44 32.2552 233.726 32.5583 233.292 33.0887C232.859 33.4424 232.706 33.9981 232.833 34.5538C232.986 35.0337 233.471 35.3621 233.956 35.3873C234.721 35.4126 235.282 35.0337 235.894 34.6801C236.506 34.2507 237.068 33.695 237.756 33.5182C238.216 33.3666 238.726 33.4424 239.185 33.2656C239.67 33.1645 240.052 32.7604 240.435 32.4067C240.869 32.0531 241.379 31.851 241.94 31.8763C242.45 31.9521 242.731 31.4974 243.088 31.1943C243.675 30.6639 244.44 30.6133 245.129 30.3102C245.613 30.1587 245.996 29.805 246.455 29.5777C246.889 29.4009 247.475 29.3504 247.909 29.5272C248.19 29.6535 248.496 29.7798 248.751 29.9819L250.817 31.6995C250.843 31.7753 250.919 31.8258 250.97 31.851C251.557 32.5583 252.169 33.2403 252.654 34.0233C252.807 34.3012 252.883 34.579 252.96 34.8822C253.062 36.0441 253.368 37.0544 253.751 38.0648C253.853 38.2164 254.057 38.3427 254.159 38.4942C254.49 38.9489 254.695 39.5299 255.23 39.833L255.536 39.9845C255.562 40.0098 255.562 40.0603 255.536 40.0856L255.485 40.1361C254.848 40.2371 254.363 39.8582 254.031 39.4036C253.827 38.9994 253.547 38.57 253.087 38.3932C253.062 38.3932 253.036 38.4184 253.036 38.4184C253.087 38.57 253.241 38.671 253.292 38.7973C253.47 39.0752 253.623 39.3783 253.7 39.6814C253.802 40.0098 254.159 40.2371 254.439 40.4139L254.848 40.616C254.899 40.6413 254.924 40.717 254.873 40.7676L254.822 40.7928C254.133 40.8181 253.521 40.5907 253.036 40.0856C252.934 39.9593 252.781 39.8582 252.603 39.8582C252.297 40.1361 251.991 40.3887 251.582 40.4139C251.149 40.3381 250.69 40.3381 250.307 40.4897C249.95 40.616 249.593 40.7676 249.21 40.7676C249.031 40.7676 248.827 40.6918 248.751 40.515C248.751 40.2876 248.598 40.035 248.725 39.8077L248.98 39.4288C248.98 39.3783 248.955 39.3278 248.904 39.3278C248.802 39.3025 248.623 39.4793 248.572 39.3025C248.598 38.9236 248.98 38.671 249.236 38.4184C249.287 38.1153 249.414 37.8375 249.644 37.5849C249.644 37.5596 249.618 37.5091 249.567 37.5091C249.236 37.5596 248.904 37.6354 248.547 37.6354C248.266 37.787 247.909 37.888 247.577 37.787C247.501 37.7364 247.526 37.6607 247.552 37.6101C247.909 37.1302 248.037 36.524 247.935 35.943C247.909 35.9178 247.909 35.8673 247.858 35.8673C247.807 35.8673 247.807 35.9178 247.782 35.943C247.705 36.4987 247.526 36.9281 247.22 37.4081C246.991 37.6354 246.634 37.6354 246.328 37.7112C246.251 37.7364 246.174 37.8122 246.174 37.888C246.174 38.0901 246.302 38.2164 246.379 38.3932L247.042 39.6056C247.067 39.934 246.914 40.2624 246.838 40.5655C246.863 40.616 246.914 40.5907 246.965 40.5655C247.195 40.3634 247.348 40.0856 247.45 39.7824C247.475 39.6561 247.424 39.5046 247.373 39.4036L246.685 38.0396C246.736 37.9638 246.838 37.9638 246.914 37.9385C247.067 37.9385 247.22 38.0143 247.373 38.0648C247.526 38.469 247.705 38.8984 247.986 39.252C248.037 39.4793 248.113 39.7824 247.96 39.9593C247.807 40.2624 247.654 40.515 247.45 40.7928C247.271 40.9696 247.016 40.9444 246.761 40.9696H246.685C246.072 41.298 245.435 41.5001 244.771 41.7021C244.491 41.8284 244.159 41.7274 243.93 41.5506C243.7 41.3738 243.598 41.1212 243.445 40.8938C243.266 40.6665 242.986 40.8686 242.782 40.7423C242.603 40.4644 242.425 40.1866 242.272 39.8835C242.272 39.8077 242.272 39.7319 242.348 39.6814C242.578 39.6056 242.833 39.6056 243.088 39.5804C243.317 39.5551 243.573 39.6056 243.726 39.7572C244.032 40.1108 244.159 40.5907 244.618 40.8181C244.976 40.8433 245.282 40.7423 245.588 40.5907C245.766 40.4897 245.97 40.3381 245.97 40.1108C245.945 39.6561 245.639 39.3025 245.256 39.0499C244.873 38.8478 244.465 38.57 244.185 38.2164C244.032 38.0143 244.006 37.787 243.93 37.5849C243.904 37.5344 243.802 37.5344 243.777 37.5596C243.624 37.6859 243.751 37.9133 243.751 38.0648C243.777 38.1659 243.828 38.2921 243.777 38.3679C243.547 38.5447 243.241 38.4437 242.96 38.469C242.399 38.4437 241.863 38.2164 241.277 38.2669C240.715 38.2921 239.95 38.671 239.542 38.1153C239.338 37.5849 239.389 36.9534 239.491 36.423C239.491 36.3724 239.44 36.3219 239.389 36.3219C239.338 36.2967 239.287 36.3219 239.261 36.3724C239.108 36.9029 239.083 37.4839 238.955 38.0396C238.751 38.5195 238.394 39.0247 237.909 39.2773C237.476 39.5046 236.966 39.5804 236.43 39.6309C235.461 39.6561 234.568 39.833 233.956 40.6665C233.905 40.7423 233.828 40.8181 233.854 40.9191C233.879 40.9444 233.956 40.9696 233.981 40.9444C234.644 40.2118 235.486 39.9087 236.455 39.9593C237.374 39.9593 238.292 39.8077 238.879 39.0247C239.032 38.8478 239.134 38.671 239.261 38.469C239.364 38.469 239.44 38.5953 239.517 38.6458C239.542 38.9236 239.312 39.1004 239.21 39.3278C239.083 39.5804 238.955 39.8835 238.7 40.035C238.394 40.1108 238.139 40.3129 237.858 40.4644C237.578 40.5907 237.221 40.6413 236.889 40.5655C236.481 40.4897 235.92 40.3887 235.512 40.5655C235.308 40.6918 235.129 40.9191 234.925 41.0454C234.644 41.1717 234.389 41.399 234.058 41.3738C233.828 41.3233 233.547 41.1717 233.343 41.3738C233.088 41.6011 233.037 42.0053 232.706 42.1568C232.323 42.3589 231.915 42.1568 231.532 42.1315C231.583 41.7527 231.634 41.399 231.889 41.1212C232.042 41.0959 232.17 41.0707 232.297 40.9696C232.451 40.8433 232.553 40.6665 232.655 40.4897C232.986 40.2876 233.369 40.1361 233.573 39.7824C233.726 39.4541 233.726 39.151 233.981 38.8478L234.109 38.7973L234.797 38.7468C235.078 38.6205 235.333 38.4942 235.588 38.2921C235.665 38.2164 235.69 38.0901 235.665 37.9638C235.537 37.6354 235.435 37.4081 235.359 37.0544C235.282 36.7008 235.333 36.3472 235.282 35.943C235.257 35.9178 235.231 35.842 235.18 35.842C234.721 35.943 234.287 36.0693 233.777 35.9936C233.088 35.9178 232.374 35.4631 232.119 34.7811C231.889 34.2002 231.94 33.3666 232.374 32.8867C232.782 32.3815 233.292 32.0026 233.803 31.5732C233.879 31.5227 233.879 31.4216 233.905 31.3459C233.905 31.2448 233.803 31.169 233.726 31.1185C233.42 31.0427 233.063 31.1438 232.757 31.0175C232.221 30.8407 231.813 30.3355 231.736 29.7798C231.711 29.5272 231.762 29.3251 231.889 29.123C232.297 29.4767 232.604 29.7798 232.986 29.8808ZM231.456 41.1717V41.2475C231.328 41.5506 231.252 41.9042 231.15 42.2578C230.92 42.2326 230.716 42.1568 230.537 42.081C230.486 42.0305 230.537 41.98 230.537 41.9295C230.767 41.7274 230.69 41.4748 230.741 41.197C230.767 41.0454 230.92 40.9191 231.073 40.8433C231.252 40.8686 231.354 41.0454 231.456 41.1717ZM232.578 40.1108C232.451 40.3634 232.272 40.6665 231.991 40.8181C231.889 40.8433 231.762 40.8433 231.66 40.7928C231.609 40.7423 231.507 40.6918 231.507 40.5907C231.532 40.4897 231.481 40.3634 231.583 40.3129C231.787 40.1866 231.991 40.0603 232.195 39.8835C232.246 39.8582 232.348 39.833 232.374 39.8835C232.476 39.9593 232.553 40.0098 232.578 40.1108ZM245.358 40.0098C245.384 40.1108 245.537 40.2371 245.435 40.3381C245.231 40.4897 245.001 40.5907 244.72 40.5655C244.516 40.4139 244.542 40.1361 244.363 39.934C244.312 39.7824 244.083 39.7824 244.134 39.6309L244.21 39.5804C244.491 39.5804 244.771 39.5804 245.052 39.5298C245.333 39.5046 245.256 39.833 245.358 40.0098ZM261.48 35.8925C261.633 36.0946 261.761 36.2967 261.863 36.5493C261.888 36.5998 261.863 36.6503 261.837 36.7008C261.812 36.7513 261.761 36.8019 261.684 36.7513C261.505 36.7008 261.531 36.423 261.301 36.4482C261.148 36.4482 261.046 36.5745 260.919 36.6503C260.689 36.8524 260.383 37.0544 260.332 37.3576C260.281 37.4586 260.307 37.6354 260.205 37.6859C260.154 37.7112 260.077 37.6607 260.077 37.6101C260.051 37.206 260.179 36.8271 260.46 36.5493C260.74 36.3219 260.944 35.9936 261.174 35.7157C261.327 35.6904 261.429 35.7915 261.48 35.8925ZM261.582 39.252C261.633 39.353 261.735 39.4793 261.659 39.6056C261.557 39.6814 261.378 39.6309 261.25 39.6309C261.097 39.5551 261.046 39.353 261.046 39.1762C261.046 39.1257 261.046 39.1004 261.097 39.0499C261.276 39.0499 261.454 39.1004 261.582 39.252ZM265.408 31.5227C265.485 31.6237 265.408 31.7247 265.357 31.8005C265 32.1289 264.567 32.4825 264.312 32.8867C264.209 33.013 264.133 33.1645 264.082 33.3161C264.082 33.3413 264.056 33.3413 264.031 33.3413C263.954 33.1393 264.056 32.9119 264.107 32.7099C264.286 32.2299 264.694 31.7753 265.128 31.4469C265.179 31.4216 265.357 31.3964 265.408 31.5227ZM266.862 29.9061C267.143 30.0829 267.245 30.4618 267.577 30.5376C268.138 30.6639 268.699 30.7902 269.209 31.0427C269.566 31.2196 269.898 31.4722 270.23 31.75C270.536 31.9016 270.918 31.9016 271.25 32.0026C271.735 32.1289 272.117 32.4825 272.551 32.7604C273.112 33.1898 273.903 33.1393 274.541 33.4171C275.561 33.7455 276.377 34.5285 277.321 34.9832C277.806 35.2358 278.546 35.3368 279.03 35.059C279.362 34.8316 279.566 34.5285 279.489 34.0991C279.311 33.0635 278.163 32.533 277.627 31.6742C277.525 31.4722 277.449 31.1943 277.5 30.967C277.704 30.4618 278.24 30.1839 278.699 30.0071C279.056 29.8303 279.515 29.8808 279.847 29.6788C279.974 29.603 280.076 29.5019 280.153 29.4262C280.229 29.4262 280.229 29.5019 280.255 29.5525C280.357 30.1587 280.255 30.7902 279.719 31.1438C279.515 31.2953 279.26 31.3459 279.03 31.3964C278.826 31.4722 278.418 31.3206 278.444 31.6742C278.495 31.851 278.648 31.9521 278.775 32.0784C279.489 32.6593 280.153 33.4171 280.229 34.3264C280.255 35.0337 279.77 35.6399 279.158 35.943C278.699 36.1199 278.137 36.1956 277.653 36.0693C277.525 36.0441 277.321 35.9178 277.219 36.0946C277.194 36.2967 277.321 36.4482 277.321 36.625C277.372 36.9534 277.372 37.3828 277.27 37.7112C277.219 37.9638 276.964 38.2669 277.194 38.5195C277.423 38.8731 277.882 38.7721 278.265 38.8226C278.469 38.8479 278.546 39.0752 278.597 39.2267C278.673 39.4288 278.673 39.6561 278.75 39.8077C278.75 40.1866 279.183 40.3381 279.387 40.5907C279.643 40.8686 279.872 41.3485 280.306 41.3233C280.459 41.6264 280.535 41.9042 280.586 42.2578L280.535 42.3084C280.178 42.3084 279.694 42.4094 279.438 42.1568C279.132 41.9547 279.03 41.399 278.571 41.5506C278.367 41.7021 278.086 41.7527 277.857 41.6516C277.627 41.5758 277.474 41.3738 277.27 41.2475C276.658 40.7928 275.842 40.5655 275.051 40.7423C274.592 40.8686 274.235 40.5402 273.877 40.3381C273.393 40.1361 273.265 39.6309 273.163 39.2015L273.087 38.671C273.087 38.6205 273.138 38.57 273.189 38.5447H273.265C273.546 39.1762 274.082 39.8835 274.77 40.1108C275.408 40.3634 275.995 40.035 276.683 40.1613C277.321 40.2371 277.831 40.6413 278.316 41.0201C278.367 41.0201 278.393 40.9949 278.418 40.9444V40.8938C277.831 40.1613 277.015 39.7824 276.071 39.8582C275.28 40.0098 274.515 39.7572 274.056 39.1004C273.801 38.7216 273.622 38.3174 273.546 37.888C273.469 37.3828 273.367 36.8271 273.189 36.3724C273.138 36.3472 273.087 36.2967 273.036 36.3219L272.985 36.3977C273.061 36.8776 273.214 37.4586 273.036 37.9638C272.908 38.3679 272.5 38.5195 272.117 38.5447C271.735 38.57 271.378 38.4942 270.969 38.4942C270.051 38.469 269.235 38.8226 268.291 38.7468C268.367 38.5195 268.521 38.2921 268.444 38.0396C268.418 37.989 268.342 37.989 268.291 37.989C268.112 38.0901 268.138 38.3174 268.036 38.469C267.832 38.7973 267.449 39.1004 267.066 39.1762C266.786 39.3783 266.531 39.6561 266.301 39.9087C266.225 39.9845 266.225 40.1361 266.25 40.2371C266.429 40.6918 266.964 40.7423 267.373 40.8686C267.577 40.8938 267.755 40.8181 267.857 40.6413C268.036 40.3634 268.061 39.9087 268.469 39.8582H269.362C269.439 39.8835 269.49 39.934 269.541 40.0098L269.515 40.1361C269.311 40.3634 269.235 40.6918 268.98 40.8433C268.827 40.8938 268.648 40.8433 268.546 40.9696C268.495 41.2727 268.418 41.6011 268.112 41.7527C267.883 41.9547 267.551 41.8537 267.296 41.7779C266.811 41.6011 266.327 41.5001 265.842 41.3485C265.638 41.298 265.561 41.0454 265.332 40.9949C265.128 40.9444 264.898 41.0959 264.72 40.9191C264.618 40.6918 264.567 40.5402 264.516 40.2876C264.439 40.1361 264.388 39.9593 264.363 39.7824C264.337 39.6309 264.363 39.5298 264.414 39.4036L265.077 38.2164C265.128 38.1406 265.179 38.0648 265.255 38.0396C265.408 38.0648 265.587 38.1406 265.74 38.2164L265.715 38.2921L265.026 39.3278C264.873 39.6561 265.026 40.035 265.179 40.3129C265.204 40.3381 265.23 40.3887 265.255 40.3634C265.23 40.1613 265.204 39.9593 265.255 39.7319C265.306 39.5298 265.434 39.353 265.536 39.1762L266.072 38.3932C266.123 38.2669 266.123 38.0648 266.021 37.9385C265.791 37.7112 265.459 37.6354 265.255 37.3323C264.822 36.7513 264.771 36.0693 264.72 35.3368C264.72 35.2863 264.669 35.2105 264.592 35.1853C264.541 35.16 264.49 35.2358 264.465 35.261C264.337 35.741 264.414 36.3219 264.541 36.7513C264.618 37.0797 264.771 37.4081 264.924 37.7112C264.949 37.7617 264.898 37.8375 264.847 37.8627C264.49 37.888 264.133 37.8627 263.801 37.8122C263.342 37.7364 263.011 37.3828 262.628 37.105C262.577 37.0797 262.551 37.1302 262.526 37.1555C262.628 37.6607 263.189 37.9638 263.368 38.4184C263.47 38.7973 263.852 39.0752 263.929 39.4793C263.929 39.5298 263.878 39.6056 263.827 39.6309C263.699 39.6561 263.572 39.5804 263.444 39.6561C263.419 39.8835 263.572 40.1108 263.47 40.3129C263.342 40.515 263.164 40.7423 262.934 40.7423C262.475 40.5907 262.016 40.3887 261.557 40.2624C261.225 40.2371 260.893 40.2876 260.587 40.3129C260.281 40.2624 260.077 39.9845 259.847 39.833C259.771 39.8077 259.694 39.8077 259.643 39.8582C259.133 40.3634 258.572 40.9191 257.807 40.8938C257.756 40.8938 257.73 40.8433 257.73 40.7928V40.7423C258.062 40.4392 258.47 40.1361 258.623 39.7067C258.725 39.353 259.031 39.1004 259.159 38.7721C259.184 38.7216 259.133 38.6963 259.082 38.671L259.006 38.7216C258.623 39.1004 258.342 39.5298 258.062 39.934C257.781 40.2118 257.373 40.3887 256.939 40.2876C256.888 40.2624 256.888 40.1866 256.914 40.1361C258.495 39.1762 258.674 37.4586 259.108 35.8925C259.414 34.8569 259.643 33.796 260.46 32.9624C261.684 31.6237 263.215 30.8407 264.567 29.6788C264.771 29.5019 264.975 29.3251 265.23 29.3251C265.893 29.2746 266.403 29.5272 266.862 29.9061ZM281.428 41.0707C281.556 41.2475 281.505 41.5253 281.556 41.7274C281.581 41.879 281.785 42.0053 281.683 42.1568L281.122 42.3336C281.02 42.3336 281.071 42.2073 281.02 42.1568C280.969 41.8284 280.892 41.6011 280.79 41.298C280.765 41.1212 280.943 40.9949 281.071 40.8938C281.199 40.8433 281.301 40.9949 281.428 41.0707ZM280.127 39.934C280.331 40.1108 280.612 40.2371 280.765 40.4644C280.79 40.5655 280.714 40.6665 280.663 40.7423C280.586 40.8181 280.484 40.8686 280.357 40.8686C280.229 40.8686 280.127 40.7928 280.051 40.6918C279.923 40.4897 279.745 40.3129 279.694 40.1108C279.77 39.9845 279.949 39.7824 280.127 39.934ZM267.832 39.7319C267.806 39.9845 267.73 40.2118 267.628 40.4392C267.551 40.5907 267.322 40.5402 267.169 40.515C267.015 40.4644 266.76 40.4392 266.735 40.2118C266.709 40.0098 266.811 39.8077 266.913 39.6561C267.143 39.6309 267.424 39.6814 267.653 39.6309C267.755 39.6309 267.832 39.6561 267.832 39.7319Z" fill="#9B99AB"/>
<path d="M215.309 55.4693H218.854V54.7368H216.125V52.2613H218.752V51.5288H216.125V49.7102H218.854V48.9776H215.309V55.4693ZM222.324 55.4693H223.14V50.6195L228.089 55.7471V48.9776H227.272V53.7769L222.324 48.6493V55.4693ZM231.609 55.4693H235.129V54.7368H232.425V52.2613H235.053V51.5288H232.425V49.7102H235.129V48.9776H231.609V55.4693ZM240.486 52.6402C241.43 52.5392 242.068 51.7562 242.068 50.8216C242.068 50.1901 241.762 49.5839 241.2 49.2555C240.69 48.9524 240.053 48.9524 239.466 48.9524H238.471V55.4693H239.287V52.716H239.619L241.558 55.4693H242.552L240.486 52.6402ZM239.287 49.6849H239.517C240.333 49.6849 241.302 49.8365 241.302 50.8468C241.302 51.8825 240.384 52.034 239.568 52.034H239.313V49.6849H239.287ZM248.445 52.1856V52.9181H250.154C250.129 53.979 249.032 54.8378 248.011 54.8378C246.583 54.8378 245.46 53.5496 245.46 52.1856C245.46 50.7205 246.608 49.5334 248.088 49.5334C248.904 49.5334 249.695 49.9628 250.154 50.5942L250.741 50.0385C250.103 49.2302 249.083 48.7756 248.062 48.7756C246.175 48.7756 244.644 50.3164 244.644 52.1856C244.644 53.979 246.124 55.5703 247.96 55.5703C249.797 55.5703 251.072 54.2063 251.072 52.4129V52.1603H248.445V52.1856ZM255.562 52.6402V55.4693H256.378V52.6402L258.521 48.9776H257.577L255.97 51.7562L254.338 48.9776H253.394L255.562 52.6402ZM264.159 55.4693H265.485C267.551 55.4693 269.21 54.4084 269.21 52.1856C269.21 50.0133 267.526 48.9524 265.511 48.9524H264.159V55.4693ZM264.975 49.7102H265.256C266.939 49.7102 268.368 50.3164 268.368 52.2361C268.368 54.1305 266.914 54.7368 265.256 54.7368H264.975V49.7102ZM274.337 52.6402C275.281 52.5392 275.918 51.7562 275.918 50.8216C275.918 50.1901 275.612 49.5839 275.051 49.2555C274.541 48.9524 273.903 48.9524 273.317 48.9524H272.322V55.4693H273.138V52.716H273.47L275.408 55.4693H276.403L274.337 52.6402ZM273.138 49.6849H273.368C274.184 49.6849 275.153 49.8365 275.153 50.8468C275.153 51.8825 274.235 52.034 273.419 52.034H273.163V49.6849H273.138ZM278.98 48.9776H279.796V55.4945H278.98V48.9776ZM283.087 55.4693H283.903V50.6195L288.826 55.7471V48.9776H288.01V53.7769L283.087 48.6493V55.4693ZM292.959 51.7814V48.9776H292.142V55.4693H292.959V52.7665L293.29 52.4382L295.765 55.4693H296.862L293.851 51.8825L296.81 48.9776H295.739L292.959 51.7814ZM305.28 0.277852C305.739 0.277852 306.121 0.429407 306.427 0.757777C306.734 1.06089 306.912 1.46504 306.912 1.89444C306.912 2.34911 306.759 2.728 306.427 3.03111C306.121 3.35948 305.713 3.51103 305.28 3.51103C304.82 3.51103 304.438 3.35948 304.106 3.03111C303.8 2.728 303.621 2.32385 303.621 1.89444C303.621 1.43978 303.774 1.06089 304.106 0.757777C304.438 0.454666 304.82 0.277852 305.28 0.277852ZM307.193 1.89444C307.193 1.38926 307.014 0.934591 306.632 0.555703C306.249 0.202074 305.815 0 305.28 0C304.744 0 304.31 0.176815 303.928 0.555703C303.545 0.934591 303.366 1.364 303.366 1.89444C303.366 2.42489 303.545 2.85429 303.928 3.23318C304.31 3.61207 304.744 3.78888 305.28 3.78888C305.815 3.78888 306.249 3.61207 306.632 3.23318C306.989 2.87955 307.193 2.42489 307.193 1.89444ZM305.79 1.49029C305.79 1.64185 305.713 1.76815 305.56 1.81866C305.484 1.84392 305.356 1.86918 305.203 1.86918H304.871V1.11141H305.177C305.382 1.11141 305.535 1.13667 305.637 1.18718C305.739 1.26296 305.79 1.33874 305.79 1.49029ZM304.514 0.858814V2.93007H304.871V2.12178H305.152C305.356 2.12178 305.484 2.14703 305.56 2.19755C305.688 2.27333 305.764 2.42489 305.764 2.67748V2.93007H306.121L306.096 2.90481C306.096 2.87955 306.07 2.85429 306.07 2.80377V2.50066C306.07 2.39963 306.019 2.29859 305.968 2.17229C305.892 2.07126 305.764 1.99548 305.611 1.97022C305.739 1.94496 305.841 1.9197 305.917 1.86918C306.045 1.79341 306.121 1.64185 306.121 1.46504C306.121 1.21244 306.019 1.03563 305.79 0.934591C305.662 0.884073 305.484 0.858814 305.203 0.858814H304.514Z" fill="#9B99AB"/>
</g>
<g clip-path="url(#clip2_110_14313)">
<path d="M410.031 12.2593C409.757 12.4341 409.707 13.4078 409.732 16.9781C409.757 20.049 409.707 21.522 409.507 21.6469C409.357 21.7467 408.583 21.547 407.809 21.2224C406.66 20.748 405.936 20.6482 404.013 20.6482C400.491 20.6731 398.518 21.4721 396.121 23.8689C394.747 25.2421 394.173 26.1659 393.274 28.3879C392.4 30.5351 392.774 34.5547 394.098 37.2262C394.922 38.899 397.12 40.9712 399.143 41.9948C400.866 42.8437 400.941 42.8687 404.013 42.8687C407.309 42.8687 407.659 42.7688 410.381 41.121C411.155 40.6716 411.155 40.6716 411.88 41.3457C413.078 42.4442 414.602 43.0185 416.075 42.9436L417.374 42.8687V37.9003L416.375 37.4009L415.376 36.8766L415.301 24.7927C415.276 16.3788 415.151 12.6089 414.976 12.3592C414.652 11.9847 410.606 11.8848 410.031 12.2593ZM405.361 26.3656C408.858 27.4142 410.631 31.1842 409.057 34.2052C407.209 37.7505 403.014 38.5744 400.292 35.9529C398.543 34.305 397.969 32.5324 398.518 30.5101C399.143 28.1632 401.415 26.2657 403.913 26.041C404.063 26.0161 404.712 26.1659 405.361 26.3656ZM445.744 12.3842C445.544 12.6089 445.495 16.8532 445.519 27.7887L445.594 42.8687H450.989V27.6639C450.989 15.48 450.914 12.4091 450.664 12.2593C450.09 11.8848 446.069 11.9847 445.744 12.3842ZM455.984 12.3842C455.784 12.6089 455.734 16.8532 455.759 27.7887L455.834 42.8687H461.328L461.403 27.7637C461.453 13.7823 461.428 12.6338 461.028 12.3342C460.429 11.9098 456.358 11.9347 455.984 12.3842ZM482.181 20.1488C482.006 20.3735 481.932 20.8229 482.006 21.2724C482.306 22.7204 481.657 23.2198 480.783 22.2461C478.26 19.4747 472.017 20.2737 468.421 23.819C466.772 25.4418 465.848 27.2394 465.299 29.861C464.949 31.5587 464.949 31.9582 465.299 33.7807C465.998 37.5258 468.271 40.4719 471.692 42.0947C473.216 42.8187 473.49 42.8687 476.312 42.8687C479.184 42.8687 479.384 42.8437 480.933 42.0697C481.832 41.6203 482.731 41.121 482.98 40.9462C483.305 40.6966 483.53 40.7715 484.254 41.4206C485.428 42.4442 487.076 43.0434 488.45 42.9436L489.549 42.8687L489.624 40.347L489.698 37.8004L488.724 37.4259C488.025 37.1513 487.701 36.8267 487.576 36.3523C487.476 35.9778 487.426 32.2078 487.451 27.9385C487.476 21.5969 487.426 20.1738 487.151 19.999C486.951 19.8742 485.827 19.7743 484.654 19.7743C483.03 19.7743 482.406 19.8742 482.181 20.1488ZM478.585 26.6902C480.533 27.589 481.932 29.7361 481.932 31.8333C481.932 33.4811 481.432 34.5797 480.059 35.878C477.936 37.9502 474.964 38.0251 472.691 36.0527C471.293 34.8793 470.693 33.606 470.693 31.8833C470.693 29.9359 471.467 28.5127 473.216 27.1895C474.739 26.041 476.762 25.8413 478.585 26.6902ZM493.919 20.2737C493.744 20.5982 493.694 24.4681 493.719 31.8084L493.794 42.8687H499.039L499.164 36.627C499.313 29.5863 499.313 29.5613 501.236 27.7138C502.535 26.4655 504.009 25.9412 505.557 26.1908C506.181 26.2907 506.431 26.1908 506.881 25.6416C507.155 25.267 507.405 24.7927 507.405 24.6179C507.405 24.4182 507.505 24.0686 507.655 23.819C507.78 23.5943 508.079 22.9701 508.304 22.4458C508.704 21.547 508.704 21.4971 508.254 21.1475C507.63 20.6981 505.032 20.4235 503.384 20.6482C502.21 20.8229 501.936 20.9727 500.787 22.1712C500.088 22.9202 499.438 23.4445 499.338 23.3446C499.239 23.2697 499.164 22.5457 499.164 21.7717C499.164 20.9977 499.039 20.2487 498.864 20.0739C498.664 19.8742 497.74 19.7743 496.367 19.7743C494.468 19.7743 494.144 19.8243 493.919 20.2737ZM427.738 20.8978C425.565 21.522 424.217 22.296 422.743 23.769C421.02 25.5167 420.121 27.1645 419.596 29.6113C419.222 31.309 419.197 31.8084 419.472 33.4811C420.196 37.9003 422.968 41.1959 427.064 42.5191C428.312 42.9436 429.112 43.0185 431.109 42.9436C433.307 42.8437 433.807 42.7438 435.355 42.0198C439.85 39.8727 442.298 35.1789 441.549 30.0357C440.924 25.8413 438.377 22.8453 433.882 21.0476C432.658 20.5483 429.286 20.4734 427.738 20.8978ZM432.658 26.5404C433.632 26.8899 435.28 28.5876 435.755 29.7111C436.454 31.334 436.379 32.8819 435.505 34.4049C433.207 38.3996 428.337 38.4995 425.715 34.6296C424.516 32.857 424.591 30.61 425.89 28.7125C427.438 26.4904 430.16 25.6166 432.658 26.5404ZM505.582 37.0015C503.959 38.0251 503.409 40.3221 504.408 41.9199C505.407 43.5927 507.205 44.117 508.953 43.2682C512.4 41.6203 511.226 36.4522 507.405 36.5271C506.781 36.5271 505.982 36.7268 505.582 37.0015Z" fill="#9B99AB"/>
</g>
<g clip-path="url(#clip3_110_14313)">
<path d="M597.637 55.9444H784.585V0H597.637V55.9444Z" fill="#9B99AB"/>
<path d="M732.823 55.9942C731.941 55.6469 729.495 54.4801 729.181 52.1673L724.633 56.0011L714.049 55.9942C713.001 55.7233 711.094 54.8482 710.496 52.0493L706.12 55.9942L696.882 56.0081L692.94 44.1594L688.056 56.0011H679.207L680.875 52.0284C677.322 54.7649 676.222 55.7164 675.901 56.015L668.383 56.0081C665.556 54.7996 665.354 52.0006 665.354 52.0006C661.689 54.7788 660.552 55.7094 660.208 56.0081L653.648 56.0011C651.232 54.9524 650.469 52.1187 650.469 52.1187C646.803 54.619 644.672 56.0011 644.672 56.0011H632.756L639.825 39.1032H633.526L626.697 55.9942H617.908L625.972 35.1583H620.212L611.632 55.9942H602.836L612.934 31.2064H597.6V24.0527H624.468L622.957 28.2477H637.506L635.86 32.5607H650.536L643.804 49.7017H650.663L656.019 37.3738C656.019 37.3738 658.076 32.5607 662.885 32.5607H681.413L674.831 49.8268H681.698L692.259 24.0527H700.622L694.174 41.0687L703.786 32.5538H713.809L701.729 43.5274L703.509 49.9379L710.929 49.8754L718.335 32.4218H726.69L719.973 49.8268H729.585L734.372 38.11H728.739L730.946 32.4357H736.294L739.997 24.0527H748.636L745.345 32.1926H750.431L748.374 37.992H742.877L738.351 49.7087H747.963L752.488 38.4851C752.488 38.4851 754.418 32.6927 760.043 32.5677H778.145L771.435 49.7017H784.6V55.9942H767.037C767.037 55.9942 762.923 55.5011 762.227 52.0493L757.964 55.9942H751.942C751.942 55.9942 748.09 55.5011 747.544 52.0493L743.153 55.9942H732.823ZM762.31 49.9518L766.962 39.1032H761.053L756.4 49.9518H762.31ZM665.72 49.9518L670.38 39.1032H664.494L659.819 49.9518H665.72Z" fill="white"/>
<path d="M719 30.4213L721.469 24.0108H729.846L727.378 30.4213H719ZM774.839 20.566H773.492V19.3853H774.951C775.235 19.3853 775.721 19.4269 775.721 19.9687C775.721 20.4826 775.272 20.566 774.839 20.566ZM776.282 22.0314L776.245 21.4063C776.222 20.9271 775.983 20.8368 775.744 20.7535C776.005 20.6215 776.32 20.434 776.32 19.92C776.32 19.1838 775.609 18.9824 774.898 18.9824H772.916V22.462H773.492V20.9757H774.898C775.609 20.9757 775.684 21.3091 775.684 21.6008C775.684 21.7328 775.706 22.2537 775.781 22.469H776.507V22.3926C776.32 22.2953 776.282 22.2259 776.282 22.0314Z" fill="white"/>
<path d="M774.577 23.6423C773.739 23.6423 772.954 23.3367 772.356 22.788C771.757 22.2324 771.421 21.5031 771.421 20.7183C771.421 19.9335 771.757 19.1973 772.356 18.6486C772.954 18.093 773.739 17.7943 774.577 17.7943C775.415 17.7943 776.223 18.0999 776.806 18.6486C777.405 19.2042 777.741 19.9335 777.741 20.7183C777.734 22.3296 776.32 23.6423 774.577 23.6423ZM777.061 18.4124C776.387 17.7943 775.512 17.4609 774.57 17.4609C772.647 17.4609 771.077 18.9195 771.077 20.7113C771.077 21.5795 771.428 22.399 772.109 23.0102C772.76 23.6214 773.65 23.9617 774.577 23.9617C775.512 23.9617 776.387 23.6214 777.061 23.0102C777.719 22.3921 778.07 21.5795 778.07 20.7113C778.07 19.8432 777.719 19.0236 777.061 18.4124Z" fill="white"/>
</g>
<g clip-path="url(#clip4_110_14313)">
<path d="M895.6 22.8546C895.032 24.4586 891.457 26.1339 882.675 24.1445L883.818 29.3403C892.6 30.939 897.805 29.6239 900.778 26.4972C902.98 24.1797 903.412 21.1821 901.602 18.8883C899.688 16.46 895.449 14.6992 890.095 14.6992C882.437 14.6992 876.98 16.9219 873.949 25.2627L869.875 36.4765H877.002L881.056 25.1351C882.72 20.4708 886.215 19.6985 890.095 19.6985C894.163 19.6985 896.127 21.3763 895.6 22.8546ZM966.171 27.776L965.895 27.6573C967.49 27.0205 969.221 26.6757 970.941 26.6757C971.985 26.6757 974.306 26.853 975.285 27.4138C975.523 27.5476 975.742 27.7588 975.624 28.0208C975.191 28.9955 968.834 28.9411 966.171 27.776ZM979.19 25.1538C977.506 24.2516 974.728 23.5325 972.012 23.4215C966.378 23.1896 959.954 25.1145 958.674 29.6653C957.935 32.2828 960.467 35.8183 967.061 36.8213C970.36 37.3286 975.602 37.2004 979.376 35.9514L980.784 32.066C973.133 34.6995 963.134 33.935 963.468 29.99C967.17 32.3694 972.571 32.1433 976.57 31.4875C983.497 30.3548 983.397 27.405 979.19 25.1538ZM990.87 27.776L990.597 27.6573C992.19 27.0205 993.922 26.6757 995.64 26.6757C996.687 26.6757 999.005 26.853 999.984 27.4138C1000.22 27.5476 1000.44 27.7588 1000.32 28.0208C999.891 28.9955 993.535 28.9411 990.87 27.776ZM1003.89 25.1538C1002.21 24.2516 999.427 23.5325 996.711 23.4215C991.079 23.1896 984.655 25.1145 983.373 29.6653C982.635 32.2828 985.169 35.8183 991.76 36.8213C995.059 37.3286 1000.3 37.2004 1004.07 35.9514L1005.49 32.066C997.834 34.6995 987.836 33.935 988.169 29.99C991.872 32.3694 997.272 32.1433 1001.27 31.4875C1008.2 30.3548 1008.1 27.405 1003.89 25.1538ZM1009.09 28.4941L1006.26 36.4793H1012.79L1014.96 30.3342C1015.5 28.7759 1015.95 27.6098 1017.85 27.6098H1022.44L1023.73 23.931H1015.28C1012.46 23.9307 1010.18 25.3339 1009.09 28.4941ZM899.789 36.4793H906.545L911.11 23.9307H904.355L899.789 36.4793ZM943.623 29.7269C944.252 28.0005 946.151 27.2013 947.814 27.2013C949.462 27.2013 951.04 28.1745 950.43 29.8554L948.017 36.4791H954.543L956.99 29.7506C958.26 26.2567 955.51 23.3627 949.348 23.3627C942.489 23.3627 938.602 25.6078 937.104 29.72L934.645 36.4796H941.167L943.623 29.7269ZM923.497 27.329C926.134 27.4405 928.258 28.7687 927.88 30.4956C927.517 32.16 924.947 33.2932 922.281 33.1786C919.644 33.069 917.521 31.7349 917.896 30.009C918.263 28.3481 920.831 27.2126 923.497 27.329ZM924.417 23.4277C917.621 23.1389 911.567 26.0489 910.752 29.7701C909.949 33.4317 914.54 36.7902 921.361 37.0789C928.154 37.3687 934.211 34.4593 935.027 30.7371C935.827 27.0762 931.237 23.7144 924.417 23.4277Z" fill="#9B99AB"/>
</g>
<g clip-path="url(#clip5_110_14313)">
<path d="M1138.63 23.5254C1137.03 23.5254 1135.77 24.8996 1135.77 26.6102C1135.77 28.3209 1137.06 29.6951 1138.63 29.6951C1140.22 29.6951 1141.48 28.3209 1141.48 26.6102C1141.48 24.8996 1140.19 23.5254 1138.63 23.5254ZM1128.42 23.5254C1126.82 23.5254 1125.56 24.8996 1125.56 26.6102C1125.56 28.3209 1126.85 29.6951 1128.42 29.6951C1130.01 29.6951 1131.27 28.3209 1131.27 26.6102C1131.3 24.8996 1130.01 23.5254 1128.42 23.5254Z" fill="#9B99AB"/>
<path d="M1152.22 0.193359H1114.74C1111.57 0.193359 1109 2.77342 1109 5.94241V43.5216C1109 46.6906 1111.57 49.2706 1114.74 49.2706H1146.46L1144.98 44.1385L1148.56 47.4478L1151.94 50.5607L1157.99 55.8049V5.94241C1157.96 2.77342 1155.39 0.193359 1152.22 0.193359ZM1141.43 36.5105C1141.43 36.5105 1140.42 35.3046 1139.58 34.267C1143.24 33.2294 1144.64 30.9578 1144.64 30.9578C1143.5 31.715 1142.4 32.2478 1141.43 32.6124C1140.03 33.2013 1138.68 33.5659 1137.37 33.8183C1134.68 34.3231 1132.22 34.1829 1130.12 33.7903C1128.53 33.4818 1127.16 33.0611 1126.01 32.5844C1125.37 32.332 1124.67 32.0235 1123.97 31.6309C1123.88 31.5748 1123.8 31.5467 1123.72 31.4906C1123.66 31.4626 1123.63 31.4345 1123.6 31.4345C1123.1 31.1541 1122.82 30.9578 1122.82 30.9578C1122.82 30.9578 1124.16 33.1733 1127.72 34.239C1126.88 35.3046 1125.84 36.5386 1125.84 36.5386C1119.66 36.3423 1117.31 32.3039 1117.31 32.3039C1117.31 23.3578 1121.34 16.0944 1121.34 16.0944C1125.37 13.0937 1129.17 13.1778 1129.17 13.1778L1129.45 13.5143C1124.42 14.9446 1122.12 17.1601 1122.12 17.1601C1122.12 17.1601 1122.74 16.8235 1123.77 16.3748C1126.77 15.0568 1129.14 14.7202 1130.12 14.6081C1130.29 14.58 1130.43 14.552 1130.6 14.552C1132.3 14.3276 1134.24 14.2715 1136.25 14.4959C1138.91 14.8044 1141.76 15.5896 1144.67 17.1601C1144.67 17.1601 1142.46 15.0568 1137.7 13.6265L1138.1 13.1778C1138.1 13.1778 1141.93 13.0937 1145.93 16.0944C1145.93 16.0944 1149.96 23.3578 1149.96 32.3039C1149.96 32.2759 1147.61 36.3142 1141.43 36.5105ZM1183.67 12.1963H1174.38V22.6567L1180.56 28.2375V18.0855H1183.87C1185.96 18.0855 1187 19.0951 1187 20.7217V28.4899C1187 30.1165 1186.02 31.2102 1183.87 31.2102H1174.35V37.1275H1183.64C1188.62 37.1556 1193.29 34.6596 1193.29 28.9386V20.5815C1193.32 14.7483 1188.65 12.1963 1183.67 12.1963ZM1232.35 28.9386V20.3571C1232.35 17.2722 1237.89 16.5711 1239.57 19.656L1244.69 17.5807C1242.67 13.1498 1239.01 11.8597 1235.96 11.8597C1230.98 11.8597 1226.06 14.7483 1226.06 20.3571V28.9386C1226.06 34.6035 1230.98 37.436 1235.85 37.436C1238.98 37.436 1242.73 35.8936 1244.8 31.8552L1239.32 29.3312C1237.97 32.7807 1232.35 31.9393 1232.35 28.9386ZM1215.42 21.535C1213.49 21.1143 1212.21 20.4132 1212.12 19.2073C1212.23 16.3187 1216.68 16.2066 1219.28 18.9829L1223.4 15.814C1220.82 12.673 1217.91 11.8317 1214.92 11.8317C1210.36 11.8317 1205.94 14.4117 1205.94 19.2914C1205.94 24.0309 1209.58 26.5829 1213.58 27.1999C1215.62 27.4803 1217.89 28.2936 1217.83 29.6958C1217.66 32.36 1212.18 32.2198 1209.69 29.191L1205.72 32.9209C1208.04 35.9216 1211.2 37.436 1214.16 37.436C1218.73 37.436 1223.79 34.7998 1223.98 29.9762C1224.26 23.8907 1219.84 22.3482 1215.42 21.535ZM1196.68 37.0995H1202.95V12.1963H1196.68V37.0995ZM1302.35 12.1963H1293.06V22.6567L1299.24 28.2375V18.0855H1302.54C1304.64 18.0855 1305.68 19.0951 1305.68 20.7217V28.4899C1305.68 30.1165 1304.7 31.2102 1302.54 31.2102H1293.03V37.1275H1302.35C1307.33 37.1556 1312 34.6596 1312 28.9386V20.5815C1312 14.7483 1307.33 12.1963 1302.35 12.1963ZM1256.77 11.8597C1251.63 11.8597 1246.51 14.6641 1246.51 20.4132V28.9106C1246.51 34.6035 1251.65 37.464 1256.83 37.464C1261.98 37.464 1267.1 34.6035 1267.1 28.9106V20.4132C1267.1 14.6922 1261.92 11.8597 1256.77 11.8597ZM1260.8 28.9106C1260.8 30.7054 1258.79 31.6309 1256.8 31.6309C1254.79 31.6309 1252.77 30.7615 1252.77 28.9106V20.4132C1252.77 18.5903 1254.73 17.6088 1256.69 17.6088C1258.73 17.6088 1260.8 18.4781 1260.8 20.4132V28.9106ZM1289.59 20.4132C1289.45 14.58 1285.48 12.2243 1280.36 12.2243H1270.43V37.1275H1276.78V29.2191H1277.9L1283.66 37.1275H1291.49L1284.72 28.574C1287.72 27.6205 1289.59 25.0124 1289.59 20.4132ZM1280.47 23.7785H1276.78V18.0855H1280.47C1284.41 18.0855 1284.41 23.7785 1280.47 23.7785Z" fill="#9B99AB"/>
</g>
<defs>
<clipPath id="clip0_110_14313">
<rect width="125" height="56" fill="white"/>
</clipPath>
<clipPath id="clip1_110_14313">
<rect width="97" height="55.7471" fill="white" transform="translate(210.2)"/>
</clipPath>
<clipPath id="clip2_110_14313">
<rect width="120" height="56" fill="white" transform="translate(392.4)"/>
</clipPath>
<clipPath id="clip3_110_14313">
<rect width="187" height="56" fill="white" transform="translate(597.6)"/>
</clipPath>
<clipPath id="clip4_110_14313">
<rect width="154" height="56" fill="white" transform="translate(869.8)"/>
</clipPath>
<clipPath id="clip5_110_14313">
<rect width="203" height="56" fill="white" transform="translate(1109)"/>
</clipPath>
</defs>
</svg>
